<?xml version="1.0" encoding="UTF-8" standalone="no"?>
<!-- Created with Inkscape (http://www.inkscape.org/) -->

<svg
   width="210mm"
   height="297mm"
   viewBox="0 0 210 297"
   version="1.1"
   id="svg7005"
   xml:space="preserve"
   inkscape:version="1.2 (dc2aedaf03, 2022-05-15)"
   sodipodi:docname="logo.svg"
   xmlns:inkscape="http://www.inkscape.org/namespaces/inkscape"
   xmlns:sodipodi="http://sodipodi.sourceforge.net/DTD/sodipodi-0.dtd"
   xmlns="http://www.w3.org/2000/svg"
   xmlns:svg="http://www.w3.org/2000/svg"><sodipodi:namedview
     id="namedview7007"
     pagecolor="#ffffff"
     bordercolor="#000000"
     borderopacity="0.25"
     inkscape:showpageshadow="2"
     inkscape:pageopacity="0.0"
     inkscape:pagecheckerboard="0"
     inkscape:deskcolor="#d1d1d1"
     inkscape:document-units="mm"
     showgrid="false"
     inkscape:zoom="8.4359982"
     inkscape:cx="432.4918"
     inkscape:cy="533.07266"
     inkscape:window-width="1920"
     inkscape:window-height="1017"
     inkscape:window-x="-8"
     inkscape:window-y="-8"
     inkscape:window-maximized="1"
     inkscape:current-layer="layer1" /><defs
     id="defs7002"><clipPath
       id="SvgjsClipPath1001"><path
         d=" M 1.1113473948241683 -13.363727751256544 h 13.556865606347756 v 13.113727751256544 h -13.556865606347756 Z"
         id="path7511" /></clipPath><clipPath
       id="SvgjsClipPath10004e3aefde-7005-4bf3-a2ec-a546d4d42a32"><path
         d=" M 1.1113473948241683 -13.363727751256544 L 14.668213001171925 -13.363727751256544 L 14.668213001171925 -0.25 L 1.1113473948241683 -0.25 Z"
         id="path7514" /></clipPath></defs><g
     inkscape:label="Ebene 1"
     inkscape:groupmode="layer"
     id="layer1"><g
       transform="matrix(0.26458333,0,0,0.26458333,101.51924,142.80543)"
       id="g7509"><g
         clip-path="url(#SvgjsClipPath1001)"
         id="g7507"><g
           clip-path="url(#SvgjsClipPath10004e3aefde-7005-4bf3-a2ec-a546d4d42a32)"
           id="g7497"><path
             d="m 1.2672338,-11.624455 c -0.31678462,-0.551709 -0.1290636,-1.255663 0.420368,-1.57638 0.551842,-0.315763 1.2550374,-0.128244 1.5763797,0.420368 l 3.1229834,5.3947215 c 0.2136875,0.3619929 0.2136875,0.8115341 0,1.1735271 L 3.2709876,-0.8332605 C 2.9503128,-0.27993917 2.2417989,-0.09134194 1.6884775,-0.4120168 1.1351562,-0.73269166 0.94655897,-1.4412056 1.2672338,-1.9945269 l 2.7901921,-4.8114612 z"
             fill="#bdbfc3"
             fill-rule="evenodd"
             id="path7495" /></g><g
           clip-path="url(#SvgjsClipPath10004e3aefde-7005-4bf3-a2ec-a546d4d42a32)"
           id="g7501"><path
             d="m 5.3290389,-11.624455 c -0.3164878,-0.552166 -0.1279473,-1.256259 0.4221195,-1.57638 0.5517085,-0.316785 1.2556622,-0.129064 1.5763797,0.420368 l 3.1177289,5.3999761 c 0.212937,0.3621974 0.212937,0.8113296 0,1.1735271 L 7.3327927,-0.8332605 C 7.0121178,-0.27993917 6.3036039,-0.09134194 5.7502826,-0.4120168 5.1969613,-0.73269166 5.0083641,-1.4412056 5.3290389,-1.9945269 l 2.7814345,-4.8114612 z"
             fill="#e8a941"
             fill-rule="evenodd"
             id="path7499" /></g><g
           clip-path="url(#SvgjsClipPath10004e3aefde-7005-4bf3-a2ec-a546d4d42a32)"
           id="g7505"><path
             d="m 9.390844,-11.624455 c -0.3164878,-0.552166 -0.1279473,-1.256259 0.4221195,-1.57638 0.5517085,-0.316785 1.2556625,-0.129064 1.5763795,0.420368 l 3.117729,5.3999761 c 0.212937,0.3621974 0.212937,0.8113296 0,1.1735271 l -3.112474,5.3737033 C 11.073923,-0.27993917 10.365409,-0.09134194 9.8120877,-0.4120168 9.2587664,-0.73269166 9.0701691,-1.4412056 9.390844,-1.9945269 l 2.783186,-4.8114612 z"
             fill="#262626"
             fill-rule="evenodd"
             id="path7503" /></g></g></g></g></svg>
