<svg xmlns="http://www.w3.org/2000/svg" version="1.1" xmlns:xlink="http://www.w3.org/1999/xlink" xmlns:svgjs="http://svgjs.dev/svgjs" viewBox="0 0 13.337624799521574 5.358240196837864"><g transform="matrix(1,0,0,1,0.689766284786594,0.7805489120512694)"><g><path d=" M 1.163197998046874 0.09150000000000014 Q 1.262197998046874 0.09150000000000014 1.3259479980468742 0.12075000000000014 Q 1.389697998046874 0.15000000000000013 1.439197998046874 0.18900000000000006 Q 1.4691979980468741 0.21150000000000013 1.484947998046874 0.19425000000000003 Q 1.5006979980468742 0.17700000000000005 1.506697998046874 0.11250000000000004 L 1.541197998046874 0.11250000000000004 Q 1.538197998046874 0.16800000000000015 1.5366979980468742 0.24750000000000005 Q 1.5351979980468742 0.32700000000000007 1.5351979980468742 0.45750000000000013 L 1.5006979980468742 0.45750000000000013 Q 1.4901979980468743 0.3930000000000001 1.4811979980468741 0.3547500000000001 Q 1.472197998046874 0.3165000000000001 1.459447998046874 0.2895000000000001 Q 1.446697998046874 0.26250000000000007 1.425697998046874 0.23550000000000004 Q 1.379197998046874 0.17400000000000015 1.308697998046874 0.14625 Q 1.238197998046874 0.11850000000000005 1.1601979980468742 0.11850000000000005 Q 1.086697998046874 0.11850000000000005 1.027447998046874 0.1552500000000001 Q 0.968197998046874 0.19200000000000006 0.9254479980468742 0.2610000000000001 Q 0.8826979980468741 0.33000000000000007 0.8594479980468741 0.4275000000000001 Q 0.8361979980468741 0.5250000000000001 0.8361979980468741 0.6465000000000001 Q 0.8361979980468741 0.7725000000000001 0.8616979980468741 0.8692500000000001 Q 0.887197998046874 0.9660000000000001 0.932947998046874 1.032 Q 0.9786979980468741 1.098 1.040947998046874 1.13175 Q 1.103197998046874 1.1655000000000002 1.175197998046874 1.1655000000000002 Q 1.2426979980468742 1.1655000000000002 1.316197998046874 1.1385 Q 1.389697998046874 1.1115000000000002 1.4316979980468743 1.0515 Q 1.4646979980468742 1.008 1.4774479980468742 0.9570000000000001 Q 1.4901979980468743 0.9060000000000001 1.5006979980468742 0.8145000000000001 L 1.5351979980468742 0.8145000000000001 Q 1.5351979980468742 0.9510000000000001 1.5366979980468742 1.0342500000000001 Q 1.538197998046874 1.1175000000000002 1.541197998046874 1.1745 L 1.506697998046874 1.1745 Q 1.5006979980468742 1.11 1.486447998046874 1.0935000000000001 Q 1.472197998046874 1.0770000000000002 1.439197998046874 1.098 Q 1.3836979980468742 1.137 1.321447998046874 1.16625 Q 1.259197998046874 1.1955 1.1616979980468742 1.1955 Q 1.0191979980468742 1.1955 0.9119479980468741 1.131 Q 0.804697998046874 1.0665 0.7454479980468741 0.9450000000000001 Q 0.6861979980468741 0.8235000000000001 0.6861979980468741 0.6525000000000001 Q 0.6861979980468741 0.48450000000000004 0.7476979980468741 0.35850000000000004 Q 0.8091979980468741 0.23250000000000004 0.916447998046874 0.16200000000000014 Q 1.0236979980468741 0.09150000000000014 1.163197998046874 0.09150000000000014 M 1.9326804199218741 0 L 1.9326804199218741 0.561 Q 1.9716804199218743 0.4590000000000001 2.0414304199218742 0.42000000000000004 Q 2.111180419921874 0.3810000000000001 2.1876804199218745 0.3810000000000001 Q 2.244680419921874 0.3810000000000001 2.282930419921874 0.39600000000000013 Q 2.321180419921874 0.41100000000000003 2.3466804199218743 0.43800000000000006 Q 2.3751804199218745 0.4680000000000001 2.387180419921874 0.5130000000000001 Q 2.3991804199218745 0.558 2.3991804199218745 0.6345000000000001 L 2.3991804199218745 1.0350000000000001 Q 2.3991804199218745 1.098 2.425430419921874 1.1205 Q 2.4516804199218742 1.143 2.5131804199218744 1.143 L 2.5131804199218744 1.1745 Q 2.4876804199218743 1.173 2.435180419921874 1.1707500000000002 Q 2.3826804199218743 1.1685 2.333180419921874 1.1685 Q 2.283680419921874 1.1685 2.236430419921874 1.1707500000000002 Q 2.189180419921874 1.173 2.1651804199218745 1.1745 L 2.1651804199218745 1.143 Q 2.2191804199218743 1.143 2.2416804199218743 1.1205 Q 2.2641804199218742 1.098 2.2641804199218742 1.0350000000000001 L 2.2641804199218742 0.6015 Q 2.2641804199218742 0.555 2.2566804199218744 0.5160000000000001 Q 2.249180419921874 0.4770000000000001 2.222930419921874 0.45300000000000007 Q 2.1966804199218743 0.42900000000000005 2.142680419921874 0.42900000000000005 Q 2.081180419921874 0.42900000000000005 2.0339304199218744 0.46350000000000013 Q 1.9866804199218742 0.4980000000000001 1.9596804199218743 0.5595000000000001 Q 1.9326804199218741 0.6210000000000001 1.9326804199218741 0.7005000000000001 L 1.9326804199218741 1.0350000000000001 Q 1.9326804199218741 1.098 1.955180419921874 1.1205 Q 1.9776804199218743 1.143 2.0316804199218743 1.143 L 2.0316804199218743 1.1745 Q 2.0076804199218743 1.173 1.9604304199218743 1.1707500000000002 Q 1.9131804199218743 1.1685 1.8636804199218742 1.1685 Q 1.8141804199218743 1.1685 1.7616804199218743 1.1707500000000002 Q 1.7091804199218743 1.173 1.6836804199218742 1.1745 L 1.6836804199218742 1.143 Q 1.7451804199218741 1.143 1.7714304199218742 1.1205 Q 1.7976804199218743 1.098 1.7976804199218743 1.0350000000000001 L 1.7976804199218743 0.18000000000000005 Q 1.7976804199218743 0.11250000000000004 1.7736804199218743 0.08025000000000015 Q 1.7496804199218743 0.04800000000000004 1.6836804199218742 0.04800000000000004 L 1.6836804199218742 0.01650000000000018 Q 1.7316804199218743 0.02100000000000013 1.7766804199218742 0.02100000000000013 Q 1.8201804199218743 0.02100000000000013 1.8599304199218742 0.015750000000000153 Q 1.8996804199218742 0.010500000000000176 1.9326804199218741 0 M 3.060699462890624 0.3810000000000001 Q 3.1011994628906243 0.3810000000000001 3.131949462890624 0.3975000000000001 Q 3.1626994628906244 0.41400000000000003 3.179949462890624 0.44025000000000003 Q 3.1971994628906244 0.46650000000000014 3.1971994628906244 0.49950000000000006 Q 3.1971994628906244 0.537 3.1739494628906244 0.5655000000000001 Q 3.1506994628906244 0.5940000000000001 3.1116994628906243 0.5940000000000001 Q 3.0801994628906244 0.5940000000000001 3.0561994628906244 0.5737500000000001 Q 3.0321994628906244 0.5535000000000001 3.0321994628906244 0.5160000000000001 Q 3.0321994628906244 0.48750000000000004 3.0479494628906245 0.46725000000000005 Q 3.0636994628906242 0.44700000000000006 3.083199462890624 0.43500000000000005 Q 3.0726994628906246 0.42000000000000004 3.051699462890624 0.42000000000000004 Q 3.0051994628906242 0.42000000000000004 2.9661994628906245 0.4477500000000001 Q 2.9271994628906244 0.47550000000000003 2.9001994628906242 0.5190000000000001 Q 2.873199462890624 0.5625000000000001 2.8581994628906244 0.6112500000000001 Q 2.8431994628906243 0.6600000000000001 2.8431994628906243 0.7020000000000001 L 2.8431994628906243 1.02 Q 2.8431994628906243 1.0935000000000001 2.885949462890624 1.1182500000000002 Q 2.9286994628906244 1.143 3.0021994628906246 1.143 L 3.0021994628906246 1.1745 Q 2.967699462890624 1.173 2.9046994628906244 1.1707500000000002 Q 2.8416994628906243 1.1685 2.7711994628906242 1.1685 Q 2.7201994628906245 1.1685 2.6699494628906244 1.1707500000000002 Q 2.6196994628906243 1.173 2.594199462890624 1.1745 L 2.594199462890624 1.143 Q 2.6556994628906243 1.143 2.6819494628906244 1.1205 Q 2.7081994628906245 1.098 2.7081994628906245 1.0350000000000001 L 2.7081994628906245 0.5655000000000001 Q 2.7081994628906245 0.4980000000000001 2.6841994628906245 0.4657500000000001 Q 2.6601994628906245 0.4335000000000001 2.594199462890624 0.4335000000000001 L 2.594199462890624 0.40200000000000014 Q 2.6421994628906242 0.4065000000000001 2.687199462890624 0.4065000000000001 Q 2.7306994628906245 0.4065000000000001 2.770449462890624 0.4012500000000001 Q 2.8101994628906244 0.39600000000000013 2.8431994628906243 0.38550000000000006 L 2.8431994628906243 0.5730000000000001 Q 2.8596994628906245 0.5295000000000001 2.8904494628906243 0.48525000000000007 Q 2.921199462890624 0.44100000000000006 2.9646994628906245 0.41100000000000003 Q 3.0081994628906243 0.3810000000000001 3.060699462890624 0.3810000000000001 M 3.4477104492187496 0.027000000000000135 Q 3.4867104492187493 0.027000000000000135 3.5152104492187495 0.055500000000000105 Q 3.5437104492187492 0.08400000000000007 3.5437104492187492 0.123 Q 3.5437104492187492 0.16200000000000014 3.5152104492187495 0.1905000000000001 Q 3.4867104492187493 0.21900000000000008 3.4477104492187496 0.21900000000000008 Q 3.4087104492187494 0.21900000000000008 3.3802104492187492 0.1905000000000001 Q 3.3517104492187495 0.16200000000000014 3.3517104492187495 0.123 Q 3.3517104492187495 0.08400000000000007 3.3802104492187492 0.055500000000000105 Q 3.4087104492187494 0.027000000000000135 3.4477104492187496 0.027000000000000135 M 3.5257104492187494 0.38550000000000006 L 3.5257104492187494 1.0350000000000001 Q 3.5257104492187494 1.098 3.5519604492187495 1.1205 Q 3.5782104492187496 1.143 3.6397104492187493 1.143 L 3.6397104492187493 1.1745 Q 3.6142104492187492 1.173 3.5624604492187495 1.1707500000000002 Q 3.5107104492187493 1.1685 3.4582104492187495 1.1685 Q 3.4072104492187494 1.1685 3.3547104492187496 1.1707500000000002 Q 3.3022104492187494 1.173 3.2767104492187493 1.1745 L 3.2767104492187493 1.143 Q 3.3382104492187494 1.143 3.3644604492187495 1.1205 Q 3.3907104492187496 1.098 3.3907104492187496 1.0350000000000001 L 3.3907104492187496 0.5655000000000001 Q 3.3907104492187496 0.4980000000000001 3.3667104492187496 0.4657500000000001 Q 3.3427104492187496 0.4335000000000001 3.2767104492187493 0.4335000000000001 L 3.2767104492187493 0.40200000000000014 Q 3.3247104492187494 0.4065000000000001 3.3697104492187493 0.4065000000000001 Q 3.4132104492187496 0.4065000000000001 3.4529604492187493 0.4012500000000001 Q 3.4927104492187495 0.39600000000000013 3.5257104492187494 0.38550000000000006 M 3.9997551269531244 0.3810000000000001 Q 4.0597551269531245 0.3810000000000001 4.101755126953124 0.4005000000000001 Q 4.143755126953125 0.42000000000000004 4.163255126953125 0.4365000000000001 Q 4.212755126953125 0.4770000000000001 4.223255126953124 0.38250000000000006 L 4.257755126953125 0.38250000000000006 Q 4.254755126953125 0.4245000000000001 4.253255126953125 0.48225000000000007 Q 4.251755126953125 0.54 4.251755126953125 0.6375000000000001 L 4.217255126953124 0.6375000000000001 Q 4.208255126953125 0.5820000000000001 4.186505126953125 0.5295000000000001 Q 4.164755126953125 0.4770000000000001 4.122755126953124 0.44325000000000003 Q 4.080755126953124 0.4095000000000001 4.0132551269531245 0.4095000000000001 Q 3.9607551269531247 0.4095000000000001 3.9255051269531247 0.4387500000000001 Q 3.8902551269531247 0.4680000000000001 3.8902551269531247 0.5250000000000001 Q 3.8902551269531247 0.5700000000000001 3.9172551269531244 0.6022500000000001 Q 3.9442551269531245 0.6345000000000001 3.9877551269531244 0.6622500000000001 Q 4.031255126953124 0.6900000000000002 4.082255126953124 0.7230000000000001 Q 4.139255126953125 0.7590000000000001 4.185755126953125 0.7965000000000001 Q 4.232255126953125 0.8340000000000001 4.260005126953125 0.8790000000000001 Q 4.287755126953124 0.9240000000000002 4.287755126953124 0.9855 Q 4.287755126953124 1.0545 4.251755126953125 1.1010000000000002 Q 4.215755126953125 1.1475000000000002 4.158005126953125 1.1715000000000002 Q 4.100255126953124 1.1955 4.031255126953124 1.1955 Q 3.998255126953125 1.1955 3.9690051269531246 1.19025 Q 3.9397551269531244 1.185 3.9127551269531247 1.1745 Q 3.8977551269531245 1.167 3.8820051269531244 1.1565 Q 3.8662551269531247 1.1460000000000001 3.8512551269531246 1.1340000000000001 Q 3.8362551269531244 1.122 3.8242551269531244 1.1347500000000001 Q 3.8122551269531244 1.1475000000000002 3.8062551269531246 1.185 L 3.7717551269531246 1.185 Q 3.7747551269531248 1.137 3.7762551269531244 1.068 Q 3.7777551269531244 0.9990000000000001 3.7777551269531244 0.8850000000000001 L 3.8122551269531244 0.8850000000000001 Q 3.8227551269531244 0.9690000000000001 3.8422551269531247 1.032 Q 3.8617551269531245 1.0950000000000002 3.9037551269531248 1.1302500000000002 Q 3.9457551269531246 1.1655000000000002 4.020755126953125 1.1655000000000002 Q 4.050755126953124 1.1655000000000002 4.081505126953124 1.1520000000000001 Q 4.112255126953125 1.1385 4.133255126953125 1.1070000000000002 Q 4.1542551269531245 1.0755000000000001 4.1542551269531245 1.0230000000000001 Q 4.1542551269531245 0.9570000000000001 4.1062551269531244 0.915 Q 4.058255126953124 0.8730000000000001 3.9847551269531247 0.8265 Q 3.9307551269531245 0.792 3.8835051269531244 0.7575000000000001 Q 3.8362551269531244 0.7230000000000001 3.8070051269531247 0.6795000000000001 Q 3.7777551269531244 0.6360000000000001 3.7777551269531244 0.5745000000000001 Q 3.7777551269531244 0.5070000000000001 3.8085051269531247 0.46425000000000005 Q 3.8392551269531245 0.4215000000000001 3.8902551269531247 0.4012500000000001 Q 3.9412551269531244 0.3810000000000001 3.9997551269531244 0.3810000000000001 M 4.658287353515624 0.15300000000000002 L 4.658287353515624 0.4035000000000001 L 4.880287353515624 0.4035000000000001 L 4.880287353515624 0.4335000000000001 L 4.658287353515624 0.4335000000000001 L 4.658287353515624 1.014 Q 4.658287353515624 1.0845 4.6837873535156245 1.113 Q 4.7092873535156246 1.1415000000000002 4.7542873535156245 1.1415000000000002 Q 4.799287353515624 1.1415000000000002 4.832287353515624 1.1047500000000001 Q 4.865287353515624 1.068 4.889287353515624 0.9810000000000001 L 4.9192873535156245 0.9885000000000002 Q 4.904287353515624 1.0755000000000001 4.860037353515624 1.1355000000000002 Q 4.815787353515624 1.1955 4.724287353515624 1.1955 Q 4.673287353515624 1.1955 4.640287353515625 1.1827500000000002 Q 4.607287353515624 1.1700000000000002 4.581787353515624 1.1460000000000001 Q 4.548787353515625 1.1115000000000002 4.536037353515624 1.0635000000000001 Q 4.523287353515625 1.0155 4.523287353515625 0.936 L 4.523287353515625 0.4335000000000001 L 4.3792873535156245 0.4335000000000001 L 4.3792873535156245 0.4035000000000001 L 4.523287353515625 0.4035000000000001 L 4.523287353515625 0.17400000000000015 Q 4.560787353515624 0.1725000000000001 4.595287353515625 0.16800000000000015 Q 4.629787353515624 0.16349999999999998 4.658287353515624 0.15300000000000002 M 5.3302932128906235 0.3810000000000001 Q 5.426293212890624 0.3810000000000001 5.502793212890624 0.42300000000000004 Q 5.579293212890624 0.4650000000000001 5.625043212890624 0.555 Q 5.670793212890624 0.6450000000000001 5.670793212890624 0.7890000000000001 Q 5.670793212890624 0.933 5.625043212890624 1.02225 Q 5.579293212890624 1.1115000000000002 5.502793212890624 1.1535000000000002 Q 5.426293212890624 1.1955 5.3302932128906235 1.1955 Q 5.2357932128906235 1.1955 5.158543212890624 1.1535000000000002 Q 5.081293212890624 1.1115000000000002 5.035543212890624 1.02225 Q 4.989793212890624 0.933 4.989793212890624 0.7890000000000001 Q 4.989793212890624 0.6450000000000001 5.035543212890624 0.555 Q 5.081293212890624 0.4650000000000001 5.158543212890624 0.42300000000000004 Q 5.2357932128906235 0.3810000000000001 5.3302932128906235 0.3810000000000001 M 5.3302932128906235 0.41100000000000003 Q 5.244793212890624 0.41100000000000003 5.1900432128906235 0.49950000000000006 Q 5.135293212890624 0.5880000000000001 5.135293212890624 0.7890000000000001 Q 5.135293212890624 0.9900000000000001 5.1900432128906235 1.07775 Q 5.244793212890624 1.1655000000000002 5.3302932128906235 1.1655000000000002 Q 5.415793212890624 1.1655000000000002 5.4705432128906235 1.07775 Q 5.525293212890624 0.9900000000000001 5.525293212890624 0.7890000000000001 Q 5.525293212890624 0.5880000000000001 5.4705432128906235 0.49950000000000006 Q 5.415793212890624 0.41100000000000003 5.3302932128906235 0.41100000000000003 M 6.038253662109374 0.38550000000000006 L 6.038253662109374 1.3065000000000002 Q 6.038253662109374 1.371 6.076503662109373 1.3927500000000002 Q 6.114753662109374 1.4145 6.182253662109374 1.4145 L 6.182253662109374 1.4460000000000002 Q 6.149253662109373 1.4445000000000001 6.090753662109374 1.44225 Q 6.032253662109373 1.4400000000000002 5.966253662109374 1.4400000000000002 Q 5.919753662109374 1.4400000000000002 5.874003662109374 1.44225 Q 5.828253662109374 1.4445000000000001 5.804253662109374 1.4460000000000002 L 5.804253662109374 1.4145 Q 5.858253662109374 1.4145 5.880753662109374 1.395 Q 5.903253662109374 1.3755000000000002 5.903253662109374 1.3215000000000001 L 5.903253662109374 0.5655000000000001 Q 5.903253662109374 0.4980000000000001 5.879253662109374 0.4657500000000001 Q 5.855253662109374 0.4335000000000001 5.789253662109374 0.4335000000000001 L 5.789253662109374 0.40200000000000014 Q 5.837253662109374 0.4065000000000001 5.882253662109374 0.4065000000000001 Q 5.925753662109374 0.4065000000000001 5.9655036621093736 0.4012500000000001 Q 6.005253662109373 0.39600000000000013 6.038253662109374 0.38550000000000006 M 6.278253662109374 0.3810000000000001 Q 6.357753662109373 0.3810000000000001 6.420753662109374 0.42375000000000007 Q 6.483753662109374 0.46650000000000014 6.520503662109373 0.549 Q 6.557253662109374 0.6315000000000001 6.557253662109374 0.7530000000000001 Q 6.557253662109374 0.8340000000000001 6.537753662109374 0.9127500000000002 Q 6.518253662109373 0.9915 6.477003662109373 1.05525 Q 6.435753662109374 1.119 6.370503662109374 1.1572500000000001 Q 6.305253662109374 1.1955 6.213753662109374 1.1955 Q 6.143253662109373 1.1955 6.091503662109374 1.1625 Q 6.039753662109374 1.1295000000000002 6.021753662109374 1.0830000000000002 L 6.036753662109374 1.062 Q 6.0577536621093735 1.104 6.097503662109373 1.1325 Q 6.137253662109374 1.161 6.1972536621093735 1.161 Q 6.281253662109374 1.161 6.327753662109374 1.1085 Q 6.374253662109374 1.056 6.393003662109374 0.96825 Q 6.411753662109374 0.8805000000000001 6.411753662109374 0.774 Q 6.411753662109374 0.6540000000000001 6.392253662109374 0.5775000000000001 Q 6.372753662109374 0.5010000000000001 6.333753662109373 0.46350000000000013 Q 6.294753662109374 0.42600000000000005 6.237753662109373 0.42600000000000005 Q 6.164253662109374 0.42600000000000005 6.1042536621093735 0.4867500000000001 Q 6.044253662109374 0.5475000000000001 6.027753662109373 0.6705000000000001 L 6.0097536621093735 0.6495000000000001 Q 6.026253662109374 0.5220000000000001 6.100503662109373 0.4515000000000001 Q 6.1747536621093735 0.3810000000000001 6.278253662109374 0.3810000000000001 M 6.921744140624998 0 L 6.921744140624998 0.561 Q 6.960744140624998 0.4590000000000001 7.030494140624998 0.42000000000000004 Q 7.100244140624998 0.3810000000000001 7.176744140624998 0.3810000000000001 Q 7.2337441406249985 0.3810000000000001 7.271994140624998 0.39600000000000013 Q 7.310244140624999 0.41100000000000003 7.335744140624998 0.43800000000000006 Q 7.364244140624998 0.4680000000000001 7.376244140624999 0.5130000000000001 Q 7.388244140624998 0.558 7.388244140624998 0.6345000000000001 L 7.388244140624998 1.0350000000000001 Q 7.388244140624998 1.098 7.414494140624998 1.1205 Q 7.440744140624998 1.143 7.502244140624998 1.143 L 7.502244140624998 1.1745 Q 7.476744140624998 1.173 7.424244140624999 1.1707500000000002 Q 7.371744140624998 1.1685 7.322244140624998 1.1685 Q 7.272744140624998 1.1685 7.225494140624998 1.1707500000000002 Q 7.178244140624998 1.173 7.154244140624998 1.1745 L 7.154244140624998 1.143 Q 7.208244140624998 1.143 7.230744140624998 1.1205 Q 7.253244140624998 1.098 7.253244140624998 1.0350000000000001 L 7.253244140624998 0.6015 Q 7.253244140624998 0.555 7.245744140624998 0.5160000000000001 Q 7.238244140624999 0.4770000000000001 7.2119941406249986 0.45300000000000007 Q 7.185744140624998 0.42900000000000005 7.131744140624998 0.42900000000000005 Q 7.0702441406249985 0.42900000000000005 7.0229941406249985 0.46350000000000013 Q 6.9757441406249985 0.4980000000000001 6.948744140624998 0.5595000000000001 Q 6.921744140624998 0.6210000000000001 6.921744140624998 0.7005000000000001 L 6.921744140624998 1.0350000000000001 Q 6.921744140624998 1.098 6.944244140624998 1.1205 Q 6.966744140624998 1.143 7.020744140624998 1.143 L 7.020744140624998 1.1745 Q 6.996744140624998 1.173 6.949494140624998 1.1707500000000002 Q 6.902244140624998 1.1685 6.852744140624998 1.1685 Q 6.803244140624998 1.1685 6.750744140624998 1.1707500000000002 Q 6.698244140624999 1.173 6.6727441406249985 1.1745 L 6.6727441406249985 1.143 Q 6.734244140624998 1.143 6.760494140624998 1.1205 Q 6.786744140624998 1.098 6.786744140624998 1.0350000000000001 L 6.786744140624998 0.18000000000000005 Q 6.786744140624998 0.11250000000000004 6.762744140624998 0.08025000000000015 Q 6.738744140624998 0.04800000000000004 6.6727441406249985 0.04800000000000004 L 6.6727441406249985 0.01650000000000018 Q 6.720744140624999 0.02100000000000013 6.7657441406249985 0.02100000000000013 Q 6.809244140624998 0.02100000000000013 6.848994140624998 0.015750000000000153 Q 6.888744140624999 0.010500000000000176 6.921744140624998 0 M 4.103280029296873 2.808 L 4.103280029296873 2.778 Q 4.1542800292968725 2.775 4.180530029296873 2.766 Q 4.206780029296873 2.7569999999999997 4.215780029296873 2.73 Q 4.2247800292968725 2.703 4.2247800292968725 2.649 L 4.2247800292968725 1.9049999999999998 Q 4.2247800292968725 1.8495 4.215780029296873 1.8232499999999998 Q 4.206780029296873 1.7969999999999997 4.180530029296873 1.7872499999999998 Q 4.1542800292968725 1.7774999999999999 4.103280029296873 1.7759999999999998 L 4.103280029296873 1.7459999999999998 Q 4.137780029296873 1.7474999999999998 4.190280029296873 1.7489999999999999 Q 4.242780029296873 1.7504999999999997 4.293780029296872 1.7504999999999997 Q 4.352280029296873 1.7504999999999997 4.403280029296873 1.7489999999999999 Q 4.454280029296873 1.7474999999999998 4.485780029296873 1.7459999999999998 L 4.485780029296873 1.7759999999999998 Q 4.434780029296872 1.7774999999999999 4.408530029296873 1.7872499999999998 Q 4.382280029296873 1.7969999999999997 4.373280029296873 1.8232499999999998 Q 4.364280029296873 1.8495 4.364280029296873 1.9049999999999998 L 4.364280029296873 2.649 Q 4.364280029296873 2.703 4.373280029296873 2.73 Q 4.382280029296873 2.7569999999999997 4.408530029296873 2.766 Q 4.434780029296872 2.775 4.485780029296873 2.778 L 4.485780029296873 2.808 Q 4.454280029296873 2.8049999999999997 4.403280029296873 2.8042499999999997 Q 4.352280029296873 2.8034999999999997 4.293780029296872 2.8034999999999997 Q 4.242780029296873 2.8034999999999997 4.190280029296873 2.8042499999999997 Q 4.137780029296873 2.8049999999999997 4.103280029296873 2.808 M 3.476280029296873 2.808 L 3.476280029296873 2.778 Q 3.5272800292968727 2.775 3.553530029296873 2.766 Q 3.579780029296873 2.7569999999999997 3.588780029296873 2.73 Q 3.5977800292968727 2.703 3.5977800292968727 2.649 L 3.5977800292968727 1.9049999999999998 Q 3.5977800292968727 1.8495 3.588780029296873 1.8232499999999998 Q 3.579780029296873 1.7969999999999997 3.553530029296873 1.7872499999999998 Q 3.5272800292968727 1.7774999999999999 3.476280029296873 1.7759999999999998 L 3.476280029296873 1.7459999999999998 Q 3.507780029296873 1.7474999999999998 3.558780029296873 1.7489999999999999 Q 3.6097800292968727 1.7504999999999997 3.6682800292968727 1.7504999999999997 Q 3.720780029296873 1.7504999999999997 3.7725300292968726 1.7489999999999999 Q 3.824280029296873 1.7474999999999998 3.858780029296873 1.7459999999999998 L 3.858780029296873 1.7759999999999998 Q 3.8077800292968726 1.7774999999999999 3.781530029296873 1.7872499999999998 Q 3.755280029296873 1.7969999999999997 3.746280029296873 1.8232499999999998 Q 3.7372800292968726 1.8495 3.7372800292968726 1.9049999999999998 L 3.7372800292968726 2.649 Q 3.7372800292968726 2.703 3.746280029296873 2.73 Q 3.755280029296873 2.7569999999999997 3.781530029296873 2.766 Q 3.8077800292968726 2.775 3.858780029296873 2.778 L 3.858780029296873 2.808 Q 3.824280029296873 2.8049999999999997 3.7725300292968726 2.8042499999999997 Q 3.720780029296873 2.8034999999999997 3.6682800292968727 2.8034999999999997 Q 3.6097800292968727 2.8034999999999997 3.558780029296873 2.8042499999999997 Q 3.507780029296873 2.8049999999999997 3.476280029296873 2.808 M 3.684780029296873 2.2889999999999997 L 3.684780029296873 2.259 L 4.277280029296873 2.259 L 4.277280029296873 2.2889999999999997 L 3.684780029296873 2.2889999999999997 M 4.812801269531248 2.8185 Q 4.751301269531249 2.8185 4.706301269531249 2.79525 Q 4.661301269531249 2.772 4.638051269531249 2.73 Q 4.614801269531249 2.6879999999999997 4.614801269531249 2.6325 Q 4.614801269531249 2.5665 4.645551269531248 2.5244999999999997 Q 4.6763012695312485 2.4825 4.7243012695312485 2.457 Q 4.772301269531249 2.4314999999999998 4.825551269531248 2.41425 Q 4.878801269531248 2.397 4.926801269531248 2.3812499999999996 Q 4.974801269531248 2.3655 5.0055512695312485 2.3445 Q 5.036301269531249 2.3234999999999997 5.036301269531249 2.2889999999999997 L 5.036301269531249 2.1959999999999997 Q 5.036301269531249 2.133 5.017551269531248 2.0999999999999996 Q 4.998801269531248 2.0669999999999997 4.967301269531248 2.0557499999999997 Q 4.9358012695312485 2.0444999999999998 4.896801269531249 2.0444999999999998 Q 4.859301269531248 2.0444999999999998 4.8165512695312485 2.0549999999999997 Q 4.773801269531249 2.0654999999999997 4.7483012695312485 2.0984999999999996 Q 4.776801269531249 2.1045 4.797801269531249 2.1285 Q 4.8188012695312485 2.1525 4.8188012695312485 2.19 Q 4.8188012695312485 2.2275 4.7948012695312485 2.24925 Q 4.7708012695312485 2.271 4.733301269531248 2.271 Q 4.689801269531248 2.271 4.669551269531248 2.2432499999999997 Q 4.649301269531248 2.2154999999999996 4.649301269531248 2.181 Q 4.649301269531248 2.142 4.668801269531248 2.118 Q 4.688301269531248 2.094 4.718301269531248 2.073 Q 4.752801269531249 2.049 4.807551269531248 2.0317499999999997 Q 4.862301269531248 2.0145 4.931301269531248 2.0145 Q 4.992801269531248 2.0145 5.036301269531249 2.0287499999999996 Q 5.079801269531249 2.0429999999999997 5.108301269531248 2.07 Q 5.147301269531249 2.106 5.159301269531248 2.15775 Q 5.171301269531249 2.2095 5.171301269531249 2.2815 L 5.171301269531249 2.6984999999999997 Q 5.171301269531249 2.7359999999999998 5.182551269531248 2.7525 Q 5.1938012695312485 2.7689999999999997 5.217801269531249 2.7689999999999997 Q 5.234301269531248 2.7689999999999997 5.249301269531248 2.7615 Q 5.2643012695312486 2.754 5.2853012695312485 2.7375 L 5.301801269531248 2.763 Q 5.270301269531249 2.787 5.241801269531249 2.8027499999999996 Q 5.213301269531248 2.8185 5.165301269531248 2.8185 Q 5.1218012695312485 2.8185 5.093301269531248 2.8034999999999997 Q 5.064801269531248 2.7885 5.050551269531248 2.7592499999999998 Q 5.036301269531249 2.73 5.036301269531249 2.6849999999999996 Q 4.995801269531248 2.7525 4.939551269531249 2.7855 Q 4.883301269531248 2.8185 4.812801269531248 2.8185 M 4.866801269531249 2.7584999999999997 Q 4.916301269531249 2.7584999999999997 4.9590512695312485 2.73 Q 5.001801269531248 2.7015 5.036301269531249 2.6445 L 5.036301269531249 2.3505 Q 5.018301269531248 2.376 4.983801269531249 2.3932499999999997 Q 4.949301269531248 2.4105 4.908801269531248 2.4277499999999996 Q 4.868301269531249 2.445 4.831551269531248 2.46825 Q 4.7948012695312485 2.4915 4.7708012695312485 2.529 Q 4.7468012695312485 2.5665 4.7468012695312485 2.6265 Q 4.7468012695312485 2.6864999999999997 4.779051269531248 2.7224999999999997 Q 4.811301269531248 2.7584999999999997 4.866801269531249 2.7584999999999997 M 5.574780029296873 2.8185 Q 5.513280029296873 2.8185 5.468280029296873 2.79525 Q 5.4232800292968735 2.772 5.4000300292968735 2.73 Q 5.3767800292968735 2.6879999999999997 5.3767800292968735 2.6325 Q 5.3767800292968735 2.5665 5.407530029296873 2.5244999999999997 Q 5.438280029296873 2.4825 5.486280029296873 2.457 Q 5.534280029296873 2.4314999999999998 5.5875300292968735 2.41425 Q 5.640780029296873 2.397 5.688780029296873 2.3812499999999996 Q 5.736780029296873 2.3655 5.767530029296873 2.3445 Q 5.798280029296873 2.3234999999999997 5.798280029296873 2.2889999999999997 L 5.798280029296873 2.1959999999999997 Q 5.798280029296873 2.133 5.779530029296873 2.0999999999999996 Q 5.760780029296873 2.0669999999999997 5.7292800292968735 2.0557499999999997 Q 5.697780029296873 2.0444999999999998 5.658780029296873 2.0444999999999998 Q 5.621280029296873 2.0444999999999998 5.578530029296873 2.0549999999999997 Q 5.535780029296873 2.0654999999999997 5.510280029296873 2.0984999999999996 Q 5.538780029296873 2.1045 5.559780029296873 2.1285 Q 5.580780029296873 2.1525 5.580780029296873 2.19 Q 5.580780029296873 2.2275 5.556780029296873 2.24925 Q 5.532780029296873 2.271 5.495280029296873 2.271 Q 5.451780029296873 2.271 5.431530029296873 2.2432499999999997 Q 5.411280029296873 2.2154999999999996 5.411280029296873 2.181 Q 5.411280029296873 2.142 5.430780029296873 2.118 Q 5.450280029296873 2.094 5.480280029296873 2.073 Q 5.514780029296873 2.049 5.569530029296873 2.0317499999999997 Q 5.624280029296873 2.0145 5.693280029296873 2.0145 Q 5.754780029296873 2.0145 5.798280029296873 2.0287499999999996 Q 5.841780029296873 2.0429999999999997 5.8702800292968735 2.07 Q 5.909280029296873 2.106 5.921280029296873 2.15775 Q 5.933280029296873 2.2095 5.933280029296873 2.2815 L 5.933280029296873 2.6984999999999997 Q 5.933280029296873 2.7359999999999998 5.944530029296873 2.7525 Q 5.955780029296873 2.7689999999999997 5.979780029296873 2.7689999999999997 Q 5.996280029296873 2.7689999999999997 6.0112800292968736 2.7615 Q 6.026280029296873 2.754 6.047280029296873 2.7375 L 6.063780029296873 2.763 Q 6.032280029296873 2.787 6.003780029296873 2.8027499999999996 Q 5.975280029296873 2.8185 5.927280029296873 2.8185 Q 5.883780029296873 2.8185 5.855280029296873 2.8034999999999997 Q 5.826780029296873 2.7885 5.812530029296873 2.7592499999999998 Q 5.798280029296873 2.73 5.798280029296873 2.6849999999999996 Q 5.757780029296873 2.7525 5.701530029296873 2.7855 Q 5.645280029296873 2.8185 5.574780029296873 2.8185 M 5.628780029296873 2.7584999999999997 Q 5.678280029296873 2.7584999999999997 5.721030029296873 2.73 Q 5.763780029296873 2.7015 5.798280029296873 2.6445 L 5.798280029296873 2.3505 Q 5.780280029296873 2.376 5.745780029296873 2.3932499999999997 Q 5.711280029296873 2.4105 5.670780029296873 2.4277499999999996 Q 5.630280029296873 2.445 5.593530029296873 2.46825 Q 5.556780029296873 2.4915 5.532780029296873 2.529 Q 5.508780029296873 2.5665 5.508780029296873 2.6265 Q 5.508780029296873 2.6864999999999997 5.5410300292968735 2.7224999999999997 Q 5.573280029296873 2.7584999999999997 5.628780029296873 2.7584999999999997 M 6.392258789062498 2.0145 Q 6.452258789062498 2.0145 6.494258789062497 2.034 Q 6.536258789062498 2.0534999999999997 6.555758789062498 2.07 Q 6.605258789062498 2.1105 6.615758789062498 2.016 L 6.650258789062498 2.016 Q 6.647258789062498 2.058 6.645758789062498 2.11575 Q 6.644258789062498 2.1734999999999998 6.644258789062498 2.271 L 6.609758789062497 2.271 Q 6.600758789062498 2.2154999999999996 6.579008789062498 2.163 Q 6.557258789062498 2.1105 6.515258789062497 2.0767499999999997 Q 6.4732587890624975 2.0429999999999997 6.405758789062498 2.0429999999999997 Q 6.353258789062497 2.0429999999999997 6.318008789062498 2.07225 Q 6.282758789062497 2.1014999999999997 6.282758789062497 2.1585 Q 6.282758789062497 2.2035 6.3097587890624975 2.23575 Q 6.336758789062498 2.268 6.3802587890624975 2.29575 Q 6.423758789062497 2.3234999999999997 6.474758789062498 2.3564999999999996 Q 6.531758789062498 2.3924999999999996 6.578258789062498 2.4299999999999997 Q 6.624758789062498 2.4675 6.652508789062498 2.5124999999999997 Q 6.680258789062497 2.5574999999999997 6.680258789062497 2.6189999999999998 Q 6.680258789062497 2.6879999999999997 6.644258789062498 2.7344999999999997 Q 6.608258789062498 2.7809999999999997 6.550508789062498 2.8049999999999997 Q 6.492758789062497 2.8289999999999997 6.423758789062497 2.8289999999999997 Q 6.390758789062498 2.8289999999999997 6.361508789062498 2.82375 Q 6.3322587890624975 2.8185 6.305258789062497 2.808 Q 6.290258789062498 2.8005 6.274508789062498 2.79 Q 6.258758789062497 2.7794999999999996 6.243758789062498 2.7674999999999996 Q 6.228758789062498 2.7554999999999996 6.216758789062498 2.7682499999999997 Q 6.204758789062498 2.7809999999999997 6.198758789062498 2.8185 L 6.164258789062497 2.8185 Q 6.1672587890624975 2.7704999999999997 6.1687587890624975 2.7015 Q 6.170258789062498 2.6325 6.170258789062498 2.5185 L 6.204758789062498 2.5185 Q 6.2152587890624975 2.6025 6.234758789062497 2.6654999999999998 Q 6.254258789062498 2.7285 6.296258789062498 2.76375 Q 6.338258789062498 2.799 6.413258789062498 2.799 Q 6.443258789062497 2.799 6.4740087890624975 2.7855 Q 6.504758789062498 2.772 6.525758789062498 2.7405 Q 6.546758789062498 2.7089999999999996 6.546758789062498 2.6565 Q 6.546758789062498 2.5905 6.498758789062498 2.5484999999999998 Q 6.4507587890624976 2.5065 6.377258789062497 2.46 Q 6.323258789062498 2.4255 6.276008789062498 2.391 Q 6.228758789062498 2.3564999999999996 6.199508789062498 2.3129999999999997 Q 6.170258789062498 2.2695 6.170258789062498 2.2079999999999997 Q 6.170258789062498 2.1405 6.201008789062498 2.0977499999999996 Q 6.231758789062498 2.0549999999999997 6.282758789062497 2.03475 Q 6.333758789062498 2.0145 6.392258789062498 2.0145 M 7.173791015624998 2.0145 Q 7.305791015624997 2.0145 7.380041015624998 2.09475 Q 7.454291015624998 2.175 7.454291015624998 2.3445 L 6.924791015624997 2.3445 L 6.923291015624997 2.316 L 7.310291015624998 2.316 Q 7.313291015624998 2.2424999999999997 7.298291015624997 2.18025 Q 7.2832910156249975 2.118 7.251041015624997 2.0805 Q 7.218791015624998 2.0429999999999997 7.1677910156249975 2.0429999999999997 Q 7.098791015624998 2.0429999999999997 7.045541015624997 2.1119999999999997 Q 6.992291015624997 2.181 6.981791015624998 2.331 L 6.986291015624998 2.3369999999999997 Q 6.983291015624998 2.3594999999999997 6.981791015624998 2.3865 Q 6.9802910156249975 2.4135 6.9802910156249975 2.4404999999999997 Q 6.9802910156249975 2.5425 7.013291015624997 2.6159999999999997 Q 7.046291015624997 2.6895 7.099541015624998 2.72775 Q 7.152791015624997 2.766 7.209791015624997 2.766 Q 7.254791015624997 2.766 7.295291015624997 2.75175 Q 7.335791015624998 2.7375 7.370291015624997 2.7045 Q 7.404791015624998 2.6715 7.430291015624998 2.6159999999999997 L 7.460291015624997 2.6279999999999997 Q 7.443791015624997 2.6774999999999998 7.406291015624998 2.7239999999999998 Q 7.368791015624997 2.7704999999999997 7.311791015624998 2.79975 Q 7.254791015624997 2.8289999999999997 7.179791015624997 2.8289999999999997 Q 7.0717910156249975 2.8289999999999997 6.994541015624997 2.7794999999999996 Q 6.917291015624998 2.73 6.876041015624997 2.6422499999999998 Q 6.834791015624997 2.5545 6.834791015624997 2.4404999999999997 Q 6.834791015624997 2.3085 6.876791015624997 2.21325 Q 6.918791015624997 2.118 6.995291015624997 2.0662499999999997 Q 7.0717910156249975 2.0145 7.173791015624998 2.0145" fill="#ffffff" fill-rule="nonzero"></path></g><g><path d=" M 0.06675 3.719925 L 0.06675 3.187425 L 0.2475 3.187425 Q 0.33225 3.187425 0.388875 3.2230499999999997 Q 0.4455 3.2586749999999998 0.47400000000000003 3.31905 Q 0.5025000000000001 3.379425 0.5025000000000001 3.452925 Q 0.5025000000000001 3.533925 0.471375 3.593925 Q 0.44025000000000003 3.653925 0.382875 3.686925 Q 0.3255 3.719925 0.2475 3.719925 L 0.06675 3.719925 M 0.45 3.452925 Q 0.45 3.389175 0.426375 3.3396749999999997 Q 0.40275 3.290175 0.35775 3.26205 Q 0.31275000000000003 3.233925 0.2475 3.233925 L 0.11925000000000001 3.233925 L 0.11925000000000001 3.673425 L 0.2475 3.673425 Q 0.3135 3.673425 0.3585 3.6441749999999997 Q 0.4035 3.614925 0.42675 3.56505 Q 0.45 3.5151749999999997 0.45 3.452925 M 0.7950201416015625 3.374175 Q 0.7440201416015626 3.3756749999999998 0.7053951416015626 3.402675 Q 0.6667701416015626 3.429675 0.6510201416015625 3.476925 L 0.6510201416015625 3.719925 L 0.6000201416015626 3.719925 L 0.6000201416015626 3.3291749999999998 L 0.6480201416015625 3.3291749999999998 L 0.6480201416015625 3.4229249999999998 Q 0.6682701416015626 3.381675 0.7016451416015625 3.356175 Q 0.7350201416015626 3.330675 0.7725201416015626 3.327675 Q 0.7800201416015626 3.326925 0.7856451416015626 3.326925 Q 0.7912701416015626 3.326925 0.7950201416015625 3.327675 L 0.7950201416015625 3.374175 M 0.8707800292968751 3.719925 L 0.8707800292968751 3.3291749999999998 L 0.9217800292968751 3.3291749999999998 L 0.9217800292968751 3.719925 L 0.8707800292968751 3.719925 M 0.8707800292968751 3.247425 L 0.8707800292968751 3.172425 L 0.9217800292968751 3.172425 L 0.9217800292968751 3.247425 L 0.8707800292968751 3.247425 M 1.1580432128906253 3.719925 L 0.9997932128906252 3.3291749999999998 L 1.0530432128906253 3.3291749999999998 L 1.1865432128906253 3.6689249999999998 L 1.3207932128906252 3.3291749999999998 L 1.3710432128906251 3.3291749999999998 L 1.2127932128906251 3.719925 L 1.1580432128906253 3.719925 M 1.6043041992187503 3.7274249999999998 Q 1.5623041992187503 3.7274249999999998 1.5263041992187503 3.7113 Q 1.4903041992187502 3.695175 1.4640541992187504 3.66705 Q 1.4378041992187502 3.638925 1.4231791992187504 3.602175 Q 1.4085541992187502 3.565425 1.4085541992187502 3.523425 Q 1.4085541992187502 3.4686749999999997 1.4336791992187503 3.4229249999999998 Q 1.4588041992187502 3.377175 1.5030541992187503 3.3498 Q 1.5473041992187502 3.322425 1.6035541992187503 3.322425 Q 1.6613041992187503 3.322425 1.7044291992187501 3.350175 Q 1.7475541992187502 3.377925 1.7723041992187503 3.4233 Q 1.7970541992187503 3.4686749999999997 1.7970541992187503 3.522675 Q 1.7970541992187503 3.528675 1.7970541992187503 3.5343 Q 1.7970541992187503 3.5399249999999998 1.7963041992187503 3.542925 L 1.4618041992187503 3.542925 Q 1.4655541992187502 3.584925 1.4854291992187503 3.61755 Q 1.5053041992187501 3.650175 1.5371791992187502 3.6693 Q 1.5690541992187503 3.688425 1.6065541992187502 3.688425 Q 1.6448041992187503 3.688425 1.6789291992187503 3.6689249999999998 Q 1.7130541992187502 3.649425 1.7265541992187503 3.617925 L 1.7708041992187502 3.629925 Q 1.7588041992187502 3.657675 1.7340541992187504 3.6801749999999998 Q 1.7093041992187503 3.7026749999999997 1.6759291992187504 3.7150499999999997 Q 1.6425541992187502 3.7274249999999998 1.6043041992187503 3.7274249999999998 M 1.4603041992187502 3.506175 L 1.7490541992187503 3.506175 Q 1.7460541992187504 3.463425 1.7261791992187503 3.431175 Q 1.7063041992187502 3.3989249999999998 1.6744291992187503 3.38055 Q 1.6425541992187502 3.3621749999999997 1.6043041992187503 3.3621749999999997 Q 1.5660541992187502 3.3621749999999997 1.5345541992187504 3.38055 Q 1.5030541992187503 3.3989249999999998 1.4831791992187502 3.43155 Q 1.4633041992187503 3.464175 1.4603041992187502 3.506175 M 2.211785522460938 3.719925 L 2.160785522460938 3.719925 L 2.160785522460938 3.501675 Q 2.160785522460938 3.4326749999999997 2.140535522460938 3.4008 Q 2.1202855224609376 3.368925 2.0767855224609377 3.368925 Q 2.046785522460938 3.368925 2.0175355224609377 3.38355 Q 1.988285522460938 3.398175 1.9661605224609378 3.4233 Q 1.9440355224609378 3.448425 1.9342855224609379 3.4806749999999997 L 1.9342855224609379 3.719925 L 1.8832855224609377 3.719925 L 1.8832855224609377 3.3291749999999998 L 1.929785522460938 3.3291749999999998 L 1.929785522460938 3.417675 Q 1.9455355224609379 3.389175 1.9710355224609377 3.3678 Q 1.9965355224609378 3.346425 2.0287855224609377 3.334425 Q 2.061035522460938 3.322425 2.095535522460938 3.322425 Q 2.127785522460938 3.322425 2.150285522460938 3.334425 Q 2.172785522460938 3.346425 2.186285522460938 3.36855 Q 2.199785522460938 3.390675 2.2057855224609377 3.4217999999999997 Q 2.211785522460938 3.452925 2.211785522460938 3.491175 L 2.211785522460938 3.719925 M 2.7180450439453128 3.7274249999999998 Q 2.672295043945313 3.7274249999999998 2.6332950439453127 3.7037999999999998 Q 2.5942950439453125 3.6801749999999998 2.5725450439453126 3.6441749999999997 L 2.5725450439453126 3.719925 L 2.5267950439453126 3.719925 L 2.5267950439453126 3.172425 L 2.577795043945313 3.172425 L 2.577795043945313 3.4109249999999998 Q 2.604045043945313 3.371175 2.640795043945313 3.3468 Q 2.6775450439453126 3.322425 2.7262950439453126 3.322425 Q 2.767545043945313 3.322425 2.8001700439453128 3.3396749999999997 Q 2.8327950439453127 3.356925 2.8560450439453127 3.3857999999999997 Q 2.8792950439453127 3.414675 2.8912950439453127 3.45105 Q 2.9032950439453127 3.487425 2.9032950439453127 3.525675 Q 2.9032950439453127 3.566925 2.8894200439453126 3.602925 Q 2.875545043945313 3.638925 2.850045043945313 3.66705 Q 2.824545043945313 3.695175 2.791170043945313 3.7113 Q 2.757795043945313 3.7274249999999998 2.7180450439453128 3.7274249999999998 M 2.7060450439453128 3.682425 Q 2.7375450439453126 3.682425 2.7645450439453128 3.669675 Q 2.791545043945313 3.6569249999999998 2.8110450439453127 3.634425 Q 2.8305450439453126 3.611925 2.8410450439453125 3.5838 Q 2.851545043945313 3.555675 2.851545043945313 3.525675 Q 2.851545043945313 3.484425 2.8339200439453127 3.44805 Q 2.8162950439453125 3.411675 2.7851700439453126 3.38955 Q 2.754045043945313 3.367425 2.7120450439453125 3.367425 Q 2.6820450439453127 3.367425 2.6561700439453126 3.380925 Q 2.6302950439453125 3.394425 2.6104200439453127 3.41655 Q 2.590545043945313 3.438675 2.577795043945313 3.464925 L 2.577795043945313 3.5864249999999998 Q 2.580795043945313 3.606675 2.593545043945313 3.6243 Q 2.6062950439453125 3.641925 2.625420043945313 3.654675 Q 2.6445450439453126 3.6674249999999997 2.6655450439453126 3.674925 Q 2.686545043945313 3.682425 2.7060450439453128 3.682425 M 3.0060443115234374 3.839925 Q 3.0165443115234374 3.840675 3.0262943115234378 3.84105 Q 3.0360443115234377 3.841425 3.0405443115234374 3.839925 Q 3.0495443115234377 3.838425 3.0577943115234376 3.829425 Q 3.0660443115234375 3.8204249999999997 3.0772943115234375 3.794925 Q 3.0885443115234374 3.769425 3.1087943115234378 3.719925 L 2.9385443115234375 3.3291749999999998 L 2.9925443115234374 3.3291749999999998 L 3.1357943115234375 3.6674249999999997 L 3.2677943115234376 3.3291749999999998 L 3.3187943115234377 3.3291749999999998 L 3.1162943115234376 3.8331749999999998 Q 3.1110443115234374 3.847425 3.1005443115234375 3.8598 Q 3.0900443115234375 3.872175 3.0746693115234374 3.8792999999999997 Q 3.0592943115234377 3.886425 3.0367943115234377 3.887175 Q 3.0300443115234375 3.887925 3.0229193115234376 3.88755 Q 3.0157943115234374 3.887175 3.0060443115234374 3.885675 L 3.0060443115234374 3.839925 M 3.763558959960937 3.701175 Q 3.7575589599609374 3.7034249999999997 3.7448089599609373 3.709425 Q 3.7320589599609373 3.7154249999999998 3.714058959960937 3.719925 Q 3.6960589599609373 3.724425 3.6750589599609373 3.724425 Q 3.6533089599609374 3.724425 3.634183959960937 3.716175 Q 3.6150589599609373 3.707925 3.6038089599609373 3.6910499999999997 Q 3.5925589599609373 3.674175 3.5925589599609373 3.649425 L 3.5925589599609373 3.369675 L 3.538558959960937 3.369675 L 3.538558959960937 3.3291749999999998 L 3.5925589599609373 3.3291749999999998 L 3.5925589599609373 3.1971749999999997 L 3.643558959960937 3.1971749999999997 L 3.643558959960937 3.3291749999999998 L 3.7335589599609373 3.3291749999999998 L 3.7335589599609373 3.369675 L 3.643558959960937 3.369675 L 3.643558959960937 3.635175 Q 3.645058959960937 3.6561749999999997 3.658933959960937 3.666675 Q 3.6728089599609373 3.677175 3.690808959960937 3.677175 Q 3.7118089599609374 3.677175 3.729058959960937 3.67005 Q 3.7463089599609374 3.662925 3.750058959960937 3.659925 L 3.763558959960937 3.701175 M 3.996846313476562 3.7274249999999998 Q 3.954846313476562 3.7274249999999998 3.918846313476562 3.7113 Q 3.8828463134765623 3.695175 3.856596313476562 3.66705 Q 3.830346313476562 3.638925 3.815721313476562 3.602175 Q 3.8010963134765623 3.565425 3.8010963134765623 3.523425 Q 3.8010963134765623 3.4686749999999997 3.826221313476562 3.4229249999999998 Q 3.851346313476562 3.377175 3.895596313476562 3.3498 Q 3.9398463134765622 3.322425 3.996096313476562 3.322425 Q 4.053846313476562 3.322425 4.096971313476562 3.350175 Q 4.140096313476562 3.377925 4.164846313476562 3.4233 Q 4.189596313476562 3.4686749999999997 4.189596313476562 3.522675 Q 4.189596313476562 3.528675 4.189596313476562 3.5343 Q 4.189596313476562 3.5399249999999998 4.188846313476562 3.542925 L 3.854346313476562 3.542925 Q 3.8580963134765622 3.584925 3.877971313476562 3.61755 Q 3.897846313476562 3.650175 3.9297213134765623 3.6693 Q 3.961596313476562 3.688425 3.9990963134765622 3.688425 Q 4.037346313476562 3.688425 4.071471313476562 3.6689249999999998 Q 4.105596313476562 3.649425 4.119096313476562 3.617925 L 4.163346313476562 3.629925 Q 4.151346313476562 3.657675 4.126596313476562 3.6801749999999998 Q 4.101846313476562 3.7026749999999997 4.068471313476562 3.7150499999999997 Q 4.035096313476562 3.7274249999999998 3.996846313476562 3.7274249999999998 M 3.852846313476562 3.506175 L 4.141596313476562 3.506175 Q 4.138596313476562 3.463425 4.118721313476562 3.431175 Q 4.098846313476562 3.3989249999999998 4.066971313476562 3.38055 Q 4.035096313476562 3.3621749999999997 3.996846313476562 3.3621749999999997 Q 3.958596313476562 3.3621749999999997 3.927096313476562 3.38055 Q 3.895596313476562 3.3989249999999998 3.875721313476562 3.43155 Q 3.855846313476562 3.464175 3.852846313476562 3.506175 M 4.4453276367187495 3.7274249999999998 Q 4.40257763671875 3.7274249999999998 4.36695263671875 3.7113 Q 4.33132763671875 3.695175 4.3047026367187495 3.666675 Q 4.27807763671875 3.638175 4.26345263671875 3.601425 Q 4.24882763671875 3.564675 4.24882763671875 3.523425 Q 4.24882763671875 3.467925 4.27357763671875 3.4221749999999997 Q 4.29832763671875 3.376425 4.34257763671875 3.349425 Q 4.38682763671875 3.322425 4.4445776367187495 3.322425 Q 4.49932763671875 3.322425 4.54132763671875 3.34755 Q 4.583327636718749 3.372675 4.60357763671875 3.415425 L 4.55407763671875 3.431175 Q 4.5375776367187495 3.401175 4.50795263671875 3.3843 Q 4.47832763671875 3.367425 4.442327636718749 3.367425 Q 4.40332763671875 3.367425 4.37107763671875 3.3876749999999998 Q 4.33882763671875 3.407925 4.31970263671875 3.443175 Q 4.30057763671875 3.478425 4.30057763671875 3.523425 Q 4.30057763671875 3.567675 4.32007763671875 3.603675 Q 4.33957763671875 3.639675 4.37182763671875 3.66105 Q 4.40407763671875 3.682425 4.4430776367187494 3.682425 Q 4.4685776367187495 3.682425 4.4922026367187495 3.673425 Q 4.5158276367187495 3.664425 4.53345263671875 3.64905 Q 4.55107763671875 3.6336749999999998 4.55707763671875 3.615675 L 4.6073276367187495 3.630675 Q 4.59682763671875 3.658425 4.57245263671875 3.6805499999999998 Q 4.54807763671875 3.7026749999999997 4.5154526367187495 3.7150499999999997 Q 4.48282763671875 3.7274249999999998 4.4453276367187495 3.7274249999999998 M 5.023586059570313 3.719925 L 4.972586059570313 3.719925 L 4.972586059570313 3.501675 Q 4.972586059570313 3.435675 4.949336059570313 3.4023 Q 4.926086059570313 3.368925 4.882586059570313 3.368925 Q 4.854086059570313 3.368925 4.825961059570313 3.38355 Q 4.7978360595703125 3.398175 4.7764610595703125 3.4233 Q 4.755086059570313 3.448425 4.746086059570312 3.4806749999999997 L 4.746086059570312 3.719925 L 4.695086059570313 3.719925 L 4.695086059570313 3.172425 L 4.746086059570312 3.172425 L 4.746086059570312 3.417675 Q 4.769336059570312 3.374175 4.810961059570313 3.3483 Q 4.852586059570313 3.322425 4.899836059570313 3.322425 Q 4.933586059570312 3.322425 4.957211059570312 3.334425 Q 4.980836059570312 3.346425 4.995461059570313 3.3693 Q 5.0100860595703125 3.392175 5.016836059570313 3.4225499999999998 Q 5.023586059570313 3.452925 5.023586059570313 3.491175 L 5.023586059570313 3.719925 M 5.468341918945313 3.719925 L 5.417341918945313 3.719925 L 5.417341918945313 3.501675 Q 5.417341918945313 3.4326749999999997 5.397091918945313 3.4008 Q 5.376841918945313 3.368925 5.333341918945313 3.368925 Q 5.303341918945313 3.368925 5.274091918945313 3.38355 Q 5.244841918945313 3.398175 5.222716918945313 3.4233 Q 5.200591918945313 3.448425 5.1908419189453125 3.4806749999999997 L 5.1908419189453125 3.719925 L 5.139841918945313 3.719925 L 5.139841918945313 3.3291749999999998 L 5.186341918945313 3.3291749999999998 L 5.186341918945313 3.417675 Q 5.202091918945313 3.389175 5.227591918945313 3.3678 Q 5.253091918945313 3.346425 5.285341918945313 3.334425 Q 5.317591918945313 3.322425 5.352091918945313 3.322425 Q 5.384341918945313 3.322425 5.406841918945313 3.334425 Q 5.429341918945313 3.346425 5.442841918945313 3.36855 Q 5.456341918945313 3.390675 5.462341918945313 3.4217999999999997 Q 5.468341918945313 3.452925 5.468341918945313 3.491175 L 5.468341918945313 3.719925 M 5.751097778320313 3.7274249999999998 Q 5.709097778320313 3.7274249999999998 5.673472778320313 3.7113 Q 5.637847778320313 3.695175 5.611972778320313 3.66705 Q 5.586097778320314 3.638925 5.571847778320313 3.60255 Q 5.557597778320313 3.566175 5.557597778320313 3.525675 Q 5.557597778320313 3.483675 5.571847778320313 3.4473 Q 5.586097778320314 3.4109249999999998 5.612347778320313 3.3828 Q 5.638597778320313 3.354675 5.674222778320313 3.3385499999999997 Q 5.709847778320313 3.322425 5.751847778320313 3.322425 Q 5.7938477783203135 3.322425 5.829097778320313 3.3385499999999997 Q 5.8643477783203135 3.354675 5.890597778320314 3.3828 Q 5.916847778320313 3.4109249999999998 5.931097778320313 3.4473 Q 5.945347778320313 3.483675 5.945347778320313 3.525675 Q 5.945347778320313 3.566175 5.931097778320313 3.60255 Q 5.916847778320313 3.638925 5.890972778320314 3.66705 Q 5.8650977783203135 3.695175 5.829472778320313 3.7113 Q 5.7938477783203135 3.7274249999999998 5.751097778320313 3.7274249999999998 M 5.609347778320314 3.5264249999999997 Q 5.609347778320314 3.569925 5.6284727783203135 3.60555 Q 5.647597778320313 3.641175 5.679847778320314 3.6618 Q 5.712097778320313 3.682425 5.751097778320313 3.682425 Q 5.790097778320313 3.682425 5.822347778320313 3.661425 Q 5.854597778320313 3.640425 5.874097778320313 3.60405 Q 5.893597778320313 3.567675 5.893597778320313 3.524925 Q 5.893597778320313 3.4814249999999998 5.874097778320313 3.4454249999999997 Q 5.854597778320313 3.4094249999999997 5.822347778320313 3.388425 Q 5.790097778320313 3.367425 5.751097778320313 3.367425 Q 5.712097778320313 3.367425 5.680222778320314 3.389175 Q 5.648347778320313 3.4109249999999998 5.6288477783203135 3.44655 Q 5.609347778320314 3.482175 5.609347778320314 3.5264249999999997 M 6.040575805664064 3.172425 L 6.091575805664063 3.172425 L 6.091575805664063 3.631425 Q 6.091575805664063 3.660675 6.102075805664064 3.669675 Q 6.112575805664063 3.678675 6.127575805664064 3.678675 Q 6.141075805664063 3.678675 6.154575805664064 3.675675 Q 6.168075805664063 3.672675 6.177825805664064 3.669675 L 6.186825805664063 3.710925 Q 6.172575805664064 3.716925 6.151950805664064 3.720675 Q 6.131325805664064 3.724425 6.116325805664063 3.724425 Q 6.081825805664064 3.724425 6.061200805664064 3.7041749999999998 Q 6.040575805664064 3.683925 6.040575805664064 3.648675 L 6.040575805664064 3.172425 M 6.416305297851563 3.7274249999999998 Q 6.3743052978515635 3.7274249999999998 6.338680297851564 3.7113 Q 6.3030552978515635 3.695175 6.277180297851563 3.66705 Q 6.251305297851564 3.638925 6.237055297851564 3.60255 Q 6.222805297851564 3.566175 6.222805297851564 3.525675 Q 6.222805297851564 3.483675 6.237055297851564 3.4473 Q 6.251305297851564 3.4109249999999998 6.277555297851563 3.3828 Q 6.3038052978515635 3.354675 6.339430297851564 3.3385499999999997 Q 6.3750552978515636 3.322425 6.417055297851563 3.322425 Q 6.459055297851564 3.322425 6.494305297851564 3.3385499999999997 Q 6.529555297851564 3.354675 6.555805297851564 3.3828 Q 6.582055297851563 3.4109249999999998 6.596305297851564 3.4473 Q 6.610555297851564 3.483675 6.610555297851564 3.525675 Q 6.610555297851564 3.566175 6.596305297851564 3.60255 Q 6.582055297851563 3.638925 6.556180297851564 3.66705 Q 6.530305297851564 3.695175 6.494680297851564 3.7113 Q 6.459055297851564 3.7274249999999998 6.416305297851563 3.7274249999999998 M 6.274555297851564 3.5264249999999997 Q 6.274555297851564 3.569925 6.293680297851564 3.60555 Q 6.312805297851564 3.641175 6.345055297851564 3.6618 Q 6.377305297851564 3.682425 6.416305297851563 3.682425 Q 6.455305297851564 3.682425 6.487555297851563 3.661425 Q 6.519805297851564 3.640425 6.539305297851564 3.60405 Q 6.558805297851563 3.567675 6.558805297851563 3.524925 Q 6.558805297851563 3.4814249999999998 6.539305297851564 3.4454249999999997 Q 6.519805297851564 3.4094249999999997 6.487555297851563 3.388425 Q 6.455305297851564 3.367425 6.416305297851563 3.367425 Q 6.377305297851564 3.367425 6.345430297851564 3.389175 Q 6.313555297851564 3.4109249999999998 6.294055297851564 3.44655 Q 6.274555297851564 3.482175 6.274555297851564 3.5264249999999997 M 6.860283325195314 3.725175 Q 6.820533325195314 3.725175 6.786783325195314 3.708675 Q 6.753033325195314 3.6921749999999998 6.7286583251953145 3.66405 Q 6.7042833251953144 3.635925 6.690783325195314 3.599925 Q 6.677283325195314 3.563925 6.677283325195314 3.525675 Q 6.677283325195314 3.484425 6.690408325195314 3.44805 Q 6.703533325195314 3.411675 6.7279083251953145 3.383175 Q 6.7522833251953145 3.354675 6.785283325195314 3.3385499999999997 Q 6.818283325195314 3.322425 6.858783325195314 3.322425 Q 6.909033325195314 3.322425 6.946158325195314 3.347925 Q 6.983283325195314 3.373425 7.008783325195314 3.4109249999999998 L 7.008783325195314 3.3291749999999998 L 7.054533325195314 3.3291749999999998 L 7.054533325195314 3.721425 Q 7.054533325195314 3.775425 7.028658325195314 3.81255 Q 7.002783325195314 3.849675 6.958908325195314 3.868425 Q 6.915033325195314 3.887175 6.863283325195314 3.887175 Q 6.796533325195314 3.887175 6.755283325195314 3.863175 Q 6.714033325195314 3.839175 6.687783325195314 3.798675 L 6.719283325195314 3.7739249999999998 Q 6.742533325195314 3.810675 6.781158325195314 3.828675 Q 6.819783325195314 3.846675 6.863283325195314 3.846675 Q 6.901533325195314 3.846675 6.933408325195314 3.8327999999999998 Q 6.965283325195314 3.818925 6.984408325195314 3.791175 Q 7.003533325195314 3.763425 7.003533325195314 3.721425 L 7.003533325195314 3.6441749999999997 Q 6.981033325195314 3.680925 6.942033325195314 3.7030499999999997 Q 6.903033325195314 3.725175 6.860283325195314 3.725175 M 6.874533325195314 3.682425 Q 6.897783325195314 3.682425 6.919158325195314 3.674175 Q 6.9405333251953145 3.665925 6.958533325195314 3.65205 Q 6.976533325195314 3.638175 6.988533325195314 3.6209249999999997 Q 7.000533325195314 3.603675 7.003533325195314 3.5856749999999997 L 7.003533325195314 3.464925 Q 6.992283325195314 3.436425 6.971283325195314 3.4143 Q 6.950283325195314 3.392175 6.923658325195314 3.3798 Q 6.897033325195314 3.367425 6.8685333251953145 3.367425 Q 6.835533325195314 3.367425 6.809658325195314 3.3813 Q 6.783783325195314 3.395175 6.766158325195314 3.41805 Q 6.748533325195314 3.440925 6.738783325195314 3.4694249999999998 Q 6.7290333251953145 3.497925 6.7290333251953145 3.5264249999999997 Q 6.7290333251953145 3.557925 6.740283325195314 3.5860499999999997 Q 6.7515333251953145 3.614175 6.771408325195314 3.6363 Q 6.791283325195314 3.658425 6.817908325195314 3.670425 Q 6.844533325195314 3.682425 6.874533325195314 3.682425 M 7.197019042968752 3.839925 Q 7.207519042968752 3.840675 7.217269042968752 3.84105 Q 7.2270190429687515 3.841425 7.231519042968752 3.839925 Q 7.240519042968752 3.838425 7.2487690429687515 3.829425 Q 7.257019042968752 3.8204249999999997 7.268269042968752 3.794925 Q 7.279519042968752 3.769425 7.299769042968752 3.719925 L 7.129519042968752 3.3291749999999998 L 7.183519042968752 3.3291749999999998 L 7.326769042968752 3.6674249999999997 L 7.458769042968752 3.3291749999999998 L 7.509769042968752 3.3291749999999998 L 7.307269042968752 3.8331749999999998 Q 7.302019042968752 3.847425 7.291519042968752 3.8598 Q 7.281019042968752 3.872175 7.265644042968752 3.8792999999999997 Q 7.2502690429687515 3.886425 7.227769042968752 3.887175 Q 7.221019042968752 3.887925 7.213894042968752 3.88755 Q 7.206769042968752 3.887175 7.197019042968752 3.885675 L 7.197019042968752 3.839925" fill="#ebebeb" fill-rule="nonzero"></path></g><g clip-path="url(#SvgjsClipPath1001)"><g clip-path="url(#SvgjsClipPath100048a680d3-472d-4a51-8137-d9b0a9142a36)"><path d=" M 7.97114125660739 0.42667160310097796 C 7.876894047683675 0.2625317453799586 7.9327432767229356 0.053097136482731844 8.096205723161018 -0.04232014647514272 C 8.26038531625759 -0.13626327169560748 8.469594319497608 -0.08047420416493663 8.565197472737141 0.08274432007848945 L 9.494322238841834 1.6877383075167691 C 9.557896829046843 1.7954355192723732 9.557896829046843 1.9291793982233876 9.494322238841834 2.036876609978992 L 8.567281880513036 3.6371806799215105 C 8.471877288795861 3.8018003675903613 8.261085961801859 3.8579102891643045 8.09646627413301 3.762505697447129 C 7.9318465864641565 3.6671011057299534 7.875736664890215 3.456309778735954 7.97114125660739 3.2916900910671023 L 8.801256653357122 1.8602230509719866 Z" fill="#bdbfc3" transform="matrix(1,0,0,1,0,0)" fill-rule="evenodd"></path></g><g clip-path="url(#SvgjsClipPath100048a680d3-472d-4a51-8137-d9b0a9142a36)"><path d=" M 9.179576664681859 0.42667160310097796 C 9.085417760756455 0.262395843336935 9.141510807256852 0.0529197360740416 9.305162233179466 -0.04232014647514272 C 9.469302090900483 -0.13656735539885373 9.67873669979771 -0.08071812635959338 9.774153982755585 0.0827443200784895 L 10.701715443028359 1.6893016133486896 C 10.76506683151541 1.7970596822838802 10.76506683151541 1.9306818468757219 10.701715443028359 2.0384399158109128 L 9.775717288587508 3.6371806799215105 C 9.680312696870331 3.8018003675903613 9.469521369876333 3.8579102891643045 9.304901682207479 3.762505697447129 C 9.140281994538629 3.6671011057299534 9.084172072964687 3.456309778735954 9.17957666468186 3.2916900910671023 L 10.007086551711726 1.8602230509719866 Z" fill="#e8a941" transform="matrix(1,0,0,1,0,0)" fill-rule="evenodd"></path></g><g clip-path="url(#SvgjsClipPath100048a680d3-472d-4a51-8137-d9b0a9142a36)"><path d=" M 10.38801207275633 0.42667160310097796 C 10.293853168830923 0.262395843336935 10.34994621533132 0.0529197360740416 10.513597641253936 -0.04232014647514272 C 10.677737498974954 -0.13656735539885373 10.88717210787218 -0.08071812635959338 10.982589390830057 0.0827443200784895 L 11.910150851102827 1.6893016133486896 C 11.97350223958988 1.7970596822838802 11.97350223958988 1.9306818468757219 11.910150851102827 2.0384399158109128 L 10.984152696661976 3.6371806799215105 C 10.888748104944803 3.8018003675903613 10.677956777950804 3.8579102891643045 10.51333709028195 3.762505697447129 C 10.348717402613099 3.6671011057299534 10.292607481039155 3.456309778735954 10.38801207275633 3.2916900910671023 L 11.216043061730172 1.8602230509719866 Z" fill="#262626" transform="matrix(1,0,0,1,0,0)" fill-rule="evenodd"></path></g></g></g><defs><clipPath id="SvgjsClipPath1001"><path d=" M 7.924763183593749 -0.09078262726467523 h 4.033329046354638 v 3.9014902545293504 h -4.033329046354638 Z"></path></clipPath><clipPath id="SvgjsClipPath100048a680d3-472d-4a51-8137-d9b0a9142a36"><path d=" M 7.924763183593749 -0.09078262726467523 L 11.958092229948386 -0.09078262726467523 L 11.958092229948386 3.810707627264675 L 7.924763183593749 3.810707627264675 Z"></path></clipPath></defs></svg>