<svg xmlns="http://www.w3.org/2000/svg" version="1.1" xmlns:xlink="http://www.w3.org/1999/xlink" xmlns:svgjs="http://svgjs.dev/svgjs" viewBox="0 0 18.83367336215987 17.832100717420325"><g transform="matrix(1,0,0,1,1.5270564830818891,14.890784234338433)"><g><path d=" M 0.45832500000000004 0.11058000000000012 Q 0.71877 0.11058000000000012 0.8453550000000001 0.24080250000000014 Q 0.9719400000000001 0.37102500000000016 0.9719400000000001 0.6140100000000002 Q 0.9719400000000001 0.7726050000000002 0.9101025 0.8911875000000001 Q 0.848265 1.00977 0.7304100000000001 1.0752450000000002 Q 0.6125550000000001 1.1407200000000002 0.44523 1.1407200000000002 Q 0.42340500000000003 1.1407200000000002 0.38703000000000004 1.1392650000000002 Q 0.35065500000000005 1.1378100000000002 0.3120975 1.1370825000000002 Q 0.27354 1.1363550000000002 0.24153000000000002 1.1363550000000002 Q 0.19060500000000002 1.1363550000000002 0.141135 1.1370825000000002 Q 0.09166500000000001 1.1378100000000002 0.061110000000000005 1.1407200000000002 L 0.061110000000000005 1.1116200000000003 Q 0.11058000000000001 1.10871 0.1360425 1.0999800000000002 Q 0.161505 1.0912500000000003 0.17023500000000003 1.0650600000000001 Q 0.178965 1.0388700000000002 0.178965 0.9864900000000002 L 0.178965 0.2648100000000001 Q 0.178965 0.21097500000000013 0.17023500000000003 0.18551250000000008 Q 0.161505 0.16005000000000014 0.1360425 0.15059250000000013 Q 0.11058000000000001 0.14113500000000012 0.061110000000000005 0.13968000000000003 L 0.061110000000000005 0.11058000000000012 Q 0.09166500000000001 0.1120350000000001 0.141135 0.11421750000000008 Q 0.19060500000000002 0.11640000000000006 0.23862000000000003 0.11494500000000007 Q 0.28954500000000005 0.11349000000000009 0.353565 0.1120350000000001 Q 0.41758500000000004 0.11058000000000012 0.45832500000000004 0.11058000000000012 M 0.42195000000000005 0.13677000000000006 Q 0.35502000000000006 0.13677000000000006 0.33465 0.16150500000000012 Q 0.31428 0.18624000000000007 0.31428 0.26190000000000013 L 0.31428 0.9894000000000002 Q 0.31428 1.0650600000000001 0.33537750000000005 1.089795 Q 0.35647500000000004 1.1145300000000002 0.42340500000000003 1.1145300000000002 Q 0.5820000000000001 1.1145300000000002 0.6693 1.0570575000000002 Q 0.7566 0.9995850000000002 0.7915200000000001 0.8890050000000002 Q 0.8264400000000001 0.7784250000000001 0.8264400000000001 0.6198300000000001 Q 0.8264400000000001 0.4568700000000001 0.7878825 0.34992750000000006 Q 0.749325 0.24298500000000012 0.6612975000000001 0.18987750000000014 Q 0.5732700000000001 0.13677000000000006 0.42195000000000005 0.13677000000000006 M 1.6516031806640625 0.37102500000000016 Q 1.6908881806640625 0.37102500000000016 1.7207156806640627 0.3870300000000001 Q 1.7505431806640628 0.40303500000000014 1.7672756806640626 0.4284975000000001 Q 1.7840081806640626 0.45396000000000014 1.7840081806640626 0.4859700000000001 Q 1.7840081806640626 0.5223450000000002 1.7614556806640627 0.5499900000000001 Q 1.7389031806640627 0.5776350000000001 1.7010731806640627 0.5776350000000001 Q 1.6705181806640628 0.5776350000000001 1.6472381806640626 0.5579925000000001 Q 1.6239581806640626 0.5383500000000001 1.6239581806640626 0.5019750000000002 Q 1.6239581806640626 0.47433000000000014 1.6392356806640627 0.45468750000000013 Q 1.6545131806640627 0.4350450000000001 1.6734281806640627 0.42340500000000014 Q 1.6632431806640626 0.4088550000000001 1.6428731806640626 0.4088550000000001 Q 1.5977681806640627 0.4088550000000001 1.5599381806640626 0.4357725000000001 Q 1.5221081806640626 0.46269000000000016 1.4959181806640627 0.5048850000000001 Q 1.4697281806640627 0.5470800000000001 1.4551781806640627 0.5943675000000002 Q 1.4406281806640626 0.6416550000000001 1.4406281806640626 0.6823950000000001 L 1.4406281806640626 0.9908550000000002 Q 1.4406281806640626 1.0621500000000001 1.4820956806640626 1.0861575 Q 1.5235631806640626 1.110165 1.5948581806640627 1.110165 L 1.5948581806640627 1.1407200000000002 Q 1.5613931806640626 1.1392650000000002 1.5002831806640626 1.1370825000000002 Q 1.4391731806640626 1.1349000000000002 1.3707881806640627 1.1349000000000002 Q 1.3213181806640626 1.1349000000000002 1.2725756806640627 1.1370825000000002 Q 1.2238331806640625 1.1392650000000002 1.1990981806640626 1.1407200000000002 L 1.1990981806640626 1.110165 Q 1.2587531806640626 1.110165 1.2842156806640626 1.08834 Q 1.3096781806640627 1.066515 1.3096781806640627 1.005405 L 1.3096781806640627 0.5499900000000001 Q 1.3096781806640627 0.48451500000000014 1.2863981806640625 0.45323250000000015 Q 1.2631181806640626 0.42195000000000016 1.1990981806640626 0.42195000000000016 L 1.1990981806640626 0.39139500000000016 Q 1.2456581806640625 0.3957600000000001 1.2893081806640627 0.3957600000000001 Q 1.3315031806640627 0.3957600000000001 1.3700606806640627 0.39066750000000006 Q 1.4086181806640625 0.3855750000000001 1.4406281806640626 0.3753900000000001 L 1.4406281806640626 0.5572650000000001 Q 1.4566331806640627 0.5150700000000001 1.4864606806640626 0.47214750000000016 Q 1.5162881806640627 0.4292250000000001 1.5584831806640627 0.40012500000000006 Q 1.6006781806640626 0.37102500000000016 1.6516031806640625 0.37102500000000016 M 2.117359337402344 0.02764500000000014 Q 2.155189337402344 0.02764500000000014 2.182834337402344 0.05529000000000006 Q 2.2104793374023437 0.08293499999999998 2.2104793374023437 0.12076500000000001 Q 2.2104793374023437 0.15859500000000004 2.182834337402344 0.18624000000000007 Q 2.155189337402344 0.2138850000000001 2.117359337402344 0.2138850000000001 Q 2.079529337402344 0.2138850000000001 2.051884337402344 0.18624000000000007 Q 2.024239337402344 0.15859500000000004 2.024239337402344 0.12076500000000001 Q 2.024239337402344 0.08293499999999998 2.051884337402344 0.05529000000000006 Q 2.079529337402344 0.02764500000000014 2.117359337402344 0.02764500000000014 M 2.193019337402344 0.3753900000000001 L 2.193019337402344 1.005405 Q 2.193019337402344 1.066515 2.218481837402344 1.08834 Q 2.243944337402344 1.110165 2.303599337402344 1.110165 L 2.303599337402344 1.1407200000000002 Q 2.278864337402344 1.1392650000000002 2.228666837402344 1.1370825000000002 Q 2.178469337402344 1.1349000000000002 2.1275443374023437 1.1349000000000002 Q 2.078074337402344 1.1349000000000002 2.027149337402344 1.1370825000000002 Q 1.9762243374023438 1.1392650000000002 1.9514893374023439 1.1407200000000002 L 1.9514893374023439 1.110165 Q 2.011144337402344 1.110165 2.036606837402344 1.08834 Q 2.062069337402344 1.066515 2.062069337402344 1.005405 L 2.062069337402344 0.5499900000000001 Q 2.062069337402344 0.48451500000000014 2.038789337402344 0.45323250000000015 Q 2.015509337402344 0.42195000000000016 1.9514893374023439 0.42195000000000016 L 1.9514893374023439 0.39139500000000016 Q 1.9980493374023438 0.3957600000000001 2.0416993374023438 0.3957600000000001 Q 2.0838943374023438 0.3957600000000001 2.1224518374023438 0.39066750000000006 Q 2.161009337402344 0.3855750000000001 2.193019337402344 0.3753900000000001 M 3.1476881748046877 0.39139500000000016 L 3.1476881748046877 0.42049500000000006 Q 3.1200431748046875 0.42340500000000014 3.0967631748046873 0.4452300000000001 Q 3.0734831748046876 0.4670550000000001 3.0531131748046874 0.5223450000000002 L 2.8144931748046873 1.147995 Q 2.8086731748046874 1.147995 2.8028531748046874 1.147995 Q 2.7970331748046875 1.147995 2.7897581748046876 1.147995 L 2.5220381748046874 0.5034300000000002 Q 2.498758174804687 0.4466850000000001 2.4762056748046875 0.43431750000000013 Q 2.4536531748046873 0.42195000000000016 2.4376481748046874 0.42195000000000016 L 2.4376481748046874 0.39139500000000016 Q 2.4667481748046876 0.39285000000000014 2.498030674804687 0.3950325000000001 Q 2.5293131748046873 0.3972150000000001 2.5656881748046874 0.3972150000000001 Q 2.6107931748046873 0.3972150000000001 2.6609906748046877 0.3957600000000001 Q 2.7111881748046875 0.3943050000000001 2.7548381748046875 0.39139500000000016 L 2.7548381748046875 0.42195000000000016 Q 2.7184631748046875 0.42195000000000016 2.6900906748046873 0.4270425000000001 Q 2.6617181748046876 0.43213500000000016 2.6537156748046873 0.4554150000000001 Q 2.6457131748046874 0.4786950000000001 2.6675381748046876 0.5354400000000001 L 2.8494131748046874 0.9850350000000001 L 2.8406831748046875 0.9923100000000001 L 3.0065531748046874 0.5572650000000001 Q 3.025468174804687 0.5092500000000001 3.0218306748046873 0.48087750000000007 Q 3.0181931748046873 0.45250500000000016 2.9927306748046876 0.4379550000000001 Q 2.9672681748046874 0.42340500000000014 2.9148881748046875 0.42049500000000006 L 2.9148881748046875 0.39139500000000016 Q 2.9410781748046873 0.39285000000000014 2.9599931748046875 0.39357750000000014 Q 2.9789081748046873 0.3943050000000001 2.9970956748046875 0.3950325000000001 Q 3.0152831748046873 0.3957600000000001 3.0371081748046875 0.3957600000000001 Q 3.0705731748046876 0.3957600000000001 3.0974906748046873 0.3943050000000001 Q 3.1244081748046875 0.39285000000000014 3.1476881748046877 0.39139500000000016 M 3.639684062988281 0.37102500000000016 Q 3.767724062988281 0.37102500000000016 3.839746562988281 0.4488675000000001 Q 3.911769062988281 0.5267100000000001 3.911769062988281 0.6911250000000002 L 3.398154062988281 0.6911250000000002 L 3.396699062988281 0.6634800000000001 L 3.772089062988281 0.6634800000000001 Q 3.774999062988281 0.5921850000000002 3.760449062988281 0.5318025000000002 Q 3.745899062988281 0.47142000000000017 3.7146165629882812 0.4350450000000001 Q 3.683334062988281 0.3986700000000001 3.6338640629882812 0.3986700000000001 Q 3.566934062988281 0.3986700000000001 3.515281562988281 0.4656000000000001 Q 3.463629062988281 0.5325300000000002 3.453444062988281 0.6780300000000001 L 3.457809062988281 0.6838500000000001 Q 3.454899062988281 0.7056750000000002 3.453444062988281 0.7318650000000002 Q 3.451989062988281 0.7580550000000001 3.451989062988281 0.7842450000000001 Q 3.451989062988281 0.8831850000000001 3.483999062988281 0.9544800000000002 Q 3.516009062988281 1.025775 3.567661562988281 1.0628775000000001 Q 3.619314062988281 1.0999800000000002 3.6746040629882812 1.0999800000000002 Q 3.718254062988281 1.0999800000000002 3.757539062988281 1.0861575 Q 3.7968240629882812 1.0723350000000003 3.830289062988281 1.0403250000000002 Q 3.8637540629882814 1.008315 3.888489062988281 0.9544800000000002 L 3.9175890629882812 0.9661200000000002 Q 3.901584062988281 1.0141350000000002 3.8652090629882814 1.0592400000000002 Q 3.828834062988281 1.1043450000000001 3.773544062988281 1.1327175000000003 Q 3.718254062988281 1.1610900000000002 3.645504062988281 1.1610900000000002 Q 3.540744062988281 1.1610900000000002 3.4658115629882813 1.1130750000000003 Q 3.3908790629882812 1.0650600000000001 3.3508665629882812 0.9799425000000002 Q 3.310854062988281 0.8948250000000002 3.310854062988281 0.7842450000000001 Q 3.310854062988281 0.6562050000000001 3.351594062988281 0.5638125000000002 Q 3.392334062988281 0.47142000000000017 3.4665390629882813 0.42122250000000017 Q 3.540744062988281 0.37102500000000016 3.639684062988281 0.37102500000000016 M 4.616107565917969 0.37102500000000016 Q 4.671397565917968 0.37102500000000016 4.708500065917969 0.3855750000000001 Q 4.745602565917968 0.40012500000000006 4.770337565917968 0.4263150000000001 Q 4.797982565917969 0.4554150000000001 4.8096225659179686 0.4990650000000001 Q 4.821262565917968 0.5427150000000002 4.821262565917968 0.6169200000000001 L 4.821262565917968 1.005405 Q 4.821262565917968 1.066515 4.846725065917969 1.08834 Q 4.872187565917969 1.110165 4.931842565917968 1.110165 L 4.931842565917968 1.1407200000000002 Q 4.907107565917968 1.1392650000000002 4.856182565917969 1.1370825000000002 Q 4.805257565917969 1.1349000000000002 4.757242565917968 1.1349000000000002 Q 4.709227565917969 1.1349000000000002 4.663395065917968 1.1370825000000002 Q 4.617562565917969 1.1392650000000002 4.594282565917968 1.1407200000000002 L 4.594282565917968 1.110165 Q 4.646662565917969 1.110165 4.668487565917968 1.08834 Q 4.690312565917969 1.066515 4.690312565917969 1.005405 L 4.690312565917969 0.5849100000000002 Q 4.690312565917969 0.5398050000000001 4.683037565917968 0.5019750000000002 Q 4.675762565917968 0.46414500000000014 4.6503000659179685 0.44086500000000006 Q 4.624837565917969 0.4175850000000001 4.5724575659179685 0.4175850000000001 Q 4.511347565917968 0.4175850000000001 4.465515065917969 0.45250500000000016 Q 4.419682565917968 0.4874250000000001 4.394220065917969 0.5478075000000001 Q 4.368757565917969 0.6081900000000001 4.368757565917969 0.6823950000000001 L 4.368757565917969 1.005405 Q 4.368757565917969 1.066515 4.390582565917969 1.08834 Q 4.4124075659179685 1.110165 4.464787565917969 1.110165 L 4.464787565917969 1.1407200000000002 Q 4.441507565917968 1.1392650000000002 4.395675065917969 1.1370825000000002 Q 4.349842565917968 1.1349000000000002 4.301827565917969 1.1349000000000002 Q 4.253812565917968 1.1349000000000002 4.202887565917968 1.1370825000000002 Q 4.151962565917969 1.1392650000000002 4.127227565917969 1.1407200000000002 L 4.127227565917969 1.110165 Q 4.186882565917968 1.110165 4.212345065917969 1.08834 Q 4.237807565917969 1.066515 4.237807565917969 1.005405 L 4.237807565917969 0.5499900000000001 Q 4.237807565917969 0.48451500000000014 4.214527565917969 0.45323250000000015 Q 4.191247565917968 0.42195000000000016 4.127227565917969 0.42195000000000016 L 4.127227565917969 0.39139500000000016 Q 4.173787565917968 0.3957600000000001 4.217437565917969 0.3957600000000001 Q 4.259632565917968 0.3957600000000001 4.298190065917969 0.39066750000000006 Q 4.336747565917968 0.3855750000000001 4.368757565917969 0.3753900000000001 L 4.368757565917969 0.5470800000000001 Q 4.4065875659179685 0.4481400000000001 4.474245065917969 0.40958250000000007 Q 4.541902565917969 0.37102500000000016 4.616107565917969 0.37102500000000016 M 6.000115643554687 0.37102500000000016 Q 6.1194256435546865 0.37102500000000016 6.197995643554687 0.4692375000000001 Q 6.276565643554687 0.5674500000000001 6.276565643554687 0.7667850000000002 Q 6.276565643554687 0.8977350000000002 6.232188143554687 0.9857625000000001 Q 6.187810643554687 1.0737900000000002 6.113605643554687 1.1174400000000002 Q 6.0394006435546865 1.1610900000000002 5.952100643554687 1.1610900000000002 Q 5.8793506435546865 1.1610900000000002 5.811693143554687 1.1196225000000002 Q 5.744035643554687 1.0781550000000002 5.710570643554687 0.9966750000000002 L 5.739670643554687 1.0126800000000002 Q 5.776045643554687 1.0708800000000003 5.829880643554687 1.0992525000000002 Q 5.8837156435546865 1.127625 5.940460643554687 1.127625 Q 6.0379456435546865 1.127625 6.086688143554687 1.0395975000000002 Q 6.135430643554687 0.9515700000000001 6.135430643554687 0.7667850000000002 Q 6.135430643554687 0.6489300000000001 6.116515643554687 0.5703600000000001 Q 6.097600643554687 0.49179000000000017 6.058315643554687 0.45323250000000015 Q 6.019030643554687 0.4146750000000001 5.9579206435546865 0.4146750000000001 Q 5.890990643554687 0.4146750000000001 5.833518143554687 0.47505750000000013 Q 5.776045643554687 0.5354400000000001 5.762950643554687 0.6518400000000002 L 5.745490643554687 0.6314700000000001 Q 5.761495643554687 0.5077950000000001 5.832063143554687 0.4394100000000001 Q 5.902630643554687 0.37102500000000016 6.000115643554687 0.37102500000000016 M 5.773135643554687 0.001454999999999984 L 5.773135643554687 1.0650600000000001 Q 5.754220643554687 1.0810650000000002 5.734578143554687 1.0977975000000002 Q 5.7149356435546865 1.1145300000000002 5.696020643554687 1.130535 Q 5.677105643554687 1.1465400000000001 5.656735643554687 1.1640000000000001 L 5.6320006435546865 1.1538150000000003 Q 5.6378206435546865 1.1334450000000003 5.6400031435546865 1.1123475000000003 Q 5.642185643554686 1.0912500000000003 5.642185643554686 1.069425 L 5.642185643554686 0.17605500000000007 Q 5.642185643554686 0.11058000000000012 5.618905643554687 0.07929750000000002 Q 5.595625643554687 0.04801500000000014 5.531605643554687 0.04801500000000014 L 5.531605643554687 0.01746000000000003 Q 5.578165643554687 0.021824999999999983 5.621815643554687 0.021824999999999983 Q 5.664010643554687 0.021824999999999983 5.702568143554687 0.01673250000000004 Q 5.741125643554687 0.011640000000000095 5.773135643554687 0.001454999999999984 M 7.155554588378906 0.39139500000000016 L 7.155554588378906 0.42049500000000006 Q 7.127909588378906 0.42340500000000014 7.104629588378906 0.4452300000000001 Q 7.081349588378906 0.4670550000000001 7.060979588378906 0.5223450000000002 L 6.822359588378906 1.147995 L 6.7976245883789055 1.147995 L 6.529904588378906 0.5034300000000002 Q 6.502259588378906 0.4466850000000001 6.4753420883789055 0.43431750000000013 Q 6.448424588378906 0.42195000000000016 6.430964588378906 0.42195000000000016 L 6.430964588378906 0.39139500000000016 Q 6.462974588378906 0.3957600000000001 6.497894588378906 0.3979425000000001 Q 6.532814588378906 0.40012500000000006 6.573554588378906 0.40012500000000006 Q 6.618659588378906 0.40012500000000006 6.668857088378906 0.3972150000000001 Q 6.719054588378906 0.3943050000000001 6.762704588378906 0.39139500000000016 L 6.762704588378906 0.42195000000000016 Q 6.726329588378906 0.42195000000000016 6.697957088378906 0.4270425000000001 Q 6.669584588378906 0.43213500000000016 6.662309588378906 0.4575975000000001 Q 6.655034588378906 0.48306000000000016 6.679769588378906 0.5441700000000002 L 6.858734588378906 0.9879450000000002 L 6.850004588378906 0.9908550000000002 L 7.015874588378906 0.5572650000000001 Q 7.034789588378906 0.5092500000000001 7.031152088378906 0.48087750000000007 Q 7.027514588378906 0.45250500000000016 7.001324588378906 0.4379550000000001 Q 6.975134588378906 0.42340500000000014 6.922754588378906 0.42049500000000006 L 6.922754588378906 0.39139500000000016 Q 6.948944588378906 0.39285000000000014 6.967859588378906 0.39357750000000014 Q 6.986774588378906 0.3943050000000001 7.004962088378906 0.3950325000000001 Q 7.023149588378906 0.3957600000000001 7.044974588378906 0.3957600000000001 Q 7.078439588378906 0.3957600000000001 7.105357088378906 0.3943050000000001 Q 7.132274588378906 0.39285000000000014 7.155554588378906 0.39139500000000016 M 6.822359588378906 1.147995 L 6.772889588378906 1.2745800000000003 Q 6.758339588378906 1.3109550000000003 6.743062088378906 1.3356900000000003 Q 6.727784588378906 1.3604250000000002 6.7103245883789056 1.3764300000000003 Q 6.687044588378906 1.3982550000000002 6.655034588378906 1.4062575000000002 Q 6.623024588378906 1.41426 6.596834588378906 1.41426 Q 6.569189588378906 1.41426 6.546637088378906 1.4040750000000002 Q 6.524084588378906 1.3938900000000003 6.510989588378906 1.3742475000000003 Q 6.497894588378906 1.3546050000000003 6.497894588378906 1.3269600000000001 Q 6.497894588378906 1.29204 6.518264588378906 1.2709425000000003 Q 6.538634588378906 1.249845 6.575009588378906 1.249845 Q 6.605564588378906 1.249845 6.627389588378906 1.2673050000000001 Q 6.649214588378906 1.2847650000000002 6.649214588378906 1.3182300000000002 Q 6.649214588378906 1.3429650000000002 6.6375745883789055 1.3589700000000002 Q 6.625934588378906 1.3749750000000003 6.609929588378906 1.3837050000000002 Q 6.612839588378906 1.3851600000000002 6.615022088378906 1.3851600000000002 Q 6.617204588378906 1.3851600000000002 6.618659588378906 1.3851600000000002 Q 6.657944588378906 1.3851600000000002 6.688499588378906 1.3582425000000002 Q 6.719054588378906 1.331325 6.742334588378906 1.2716700000000003 L 6.7947145883789055 1.1363550000000002 L 6.822359588378906 1.147995 M 7.961988764648437 0.14986500000000014 L 7.961988764648437 0.39285000000000014 L 8.177328764648438 0.39285000000000014 L 8.177328764648438 0.42195000000000016 L 7.961988764648437 0.42195000000000016 L 7.961988764648437 0.9850350000000001 Q 7.961988764648437 1.0534200000000002 7.9867237646484375 1.0810650000000002 Q 8.011458764648438 1.10871 8.055108764648438 1.10871 Q 8.098758764648437 1.10871 8.130768764648437 1.0730625000000003 Q 8.162778764648436 1.0374150000000002 8.186058764648438 0.9530250000000001 L 8.215158764648438 0.9603000000000002 Q 8.200608764648438 1.0446900000000001 8.157686264648436 1.1028900000000001 Q 8.114763764648437 1.1610900000000002 8.026008764648438 1.1610900000000002 Q 7.976538764648438 1.1610900000000002 7.944528764648437 1.1487225 Q 7.912518764648437 1.1363550000000002 7.887783764648438 1.1130750000000003 Q 7.855773764648437 1.0796100000000002 7.843406264648437 1.0330500000000002 Q 7.831038764648437 0.9864900000000002 7.831038764648437 0.9093750000000002 L 7.831038764648437 0.42195000000000016 L 7.691358764648437 0.42195000000000016 L 7.691358764648437 0.39285000000000014 L 7.831038764648437 0.39285000000000014 L 7.831038764648437 0.17023500000000014 Q 7.867413764648437 0.16878000000000004 7.9008787646484375 0.1644150000000001 Q 7.934343764648437 0.16005000000000014 7.961988764648437 0.14986500000000014 M 8.701279948242187 0.37102500000000016 Q 8.829319948242187 0.37102500000000016 8.901342448242188 0.4488675000000001 Q 8.973364948242187 0.5267100000000001 8.973364948242187 0.6911250000000002 L 8.459749948242187 0.6911250000000002 L 8.458294948242187 0.6634800000000001 L 8.833684948242187 0.6634800000000001 Q 8.836594948242187 0.5921850000000002 8.822044948242187 0.5318025000000002 Q 8.807494948242187 0.47142000000000017 8.776212448242187 0.4350450000000001 Q 8.744929948242188 0.3986700000000001 8.695459948242187 0.3986700000000001 Q 8.628529948242187 0.3986700000000001 8.576877448242188 0.4656000000000001 Q 8.525224948242187 0.5325300000000002 8.515039948242187 0.6780300000000001 L 8.519404948242187 0.6838500000000001 Q 8.516494948242187 0.7056750000000002 8.515039948242187 0.7318650000000002 Q 8.513584948242187 0.7580550000000001 8.513584948242187 0.7842450000000001 Q 8.513584948242187 0.8831850000000001 8.545594948242186 0.9544800000000002 Q 8.577604948242188 1.025775 8.629257448242187 1.0628775000000001 Q 8.680909948242187 1.0999800000000002 8.736199948242188 1.0999800000000002 Q 8.779849948242187 1.0999800000000002 8.819134948242187 1.0861575 Q 8.858419948242187 1.0723350000000003 8.891884948242188 1.0403250000000002 Q 8.925349948242188 1.008315 8.950084948242187 0.9544800000000002 L 8.979184948242187 0.9661200000000002 Q 8.963179948242187 1.0141350000000002 8.926804948242188 1.0592400000000002 Q 8.890429948242188 1.1043450000000001 8.835139948242187 1.1327175000000003 Q 8.779849948242187 1.1610900000000002 8.707099948242188 1.1610900000000002 Q 8.602339948242188 1.1610900000000002 8.527407448242187 1.1130750000000003 Q 8.452474948242187 1.0650600000000001 8.412462448242188 0.9799425000000002 Q 8.372449948242187 0.8948250000000002 8.372449948242187 0.7842450000000001 Q 8.372449948242187 0.6562050000000001 8.413189948242188 0.5638125000000002 Q 8.453929948242187 0.47142000000000017 8.528134948242187 0.42122250000000017 Q 8.602339948242188 0.37102500000000016 8.701279948242187 0.37102500000000016 M 9.552573451171876 0.37102500000000016 Q 9.599133451171875 0.37102500000000016 9.642783451171875 0.38266500000000014 Q 9.686433451171874 0.3943050000000001 9.721353451171876 0.4175850000000001 Q 9.754818451171875 0.4394100000000001 9.772278451171875 0.4677825000000001 Q 9.789738451171875 0.4961550000000001 9.789738451171875 0.5296200000000001 Q 9.789738451171875 0.5689050000000001 9.767913451171875 0.5900025000000001 Q 9.746088451171875 0.6111000000000001 9.712623451171876 0.6111000000000001 Q 9.680613451171874 0.6111000000000001 9.656605951171874 0.5921850000000002 Q 9.632598451171875 0.5732700000000002 9.632598451171875 0.5383500000000001 Q 9.632598451171875 0.5048850000000001 9.650785951171875 0.48451500000000014 Q 9.668973451171874 0.46414500000000014 9.693708451171874 0.4583250000000001 Q 9.679158451171874 0.43213500000000016 9.642055951171875 0.4146750000000001 Q 9.604953451171875 0.3972150000000001 9.562758451171876 0.3972150000000001 Q 9.526383451171874 0.3972150000000001 9.490008451171875 0.4146750000000001 Q 9.453633451171875 0.43213500000000016 9.423078451171875 0.47214750000000016 Q 9.392523451171876 0.5121600000000002 9.373608451171874 0.5812725000000001 Q 9.354693451171874 0.6503850000000002 9.354693451171874 0.7536900000000002 Q 9.354693451171874 0.8817300000000001 9.383793451171874 0.9573900000000002 Q 9.412893451171875 1.0330500000000002 9.460180951171875 1.0657875 Q 9.507468451171874 1.0985250000000002 9.564213451171875 1.0985250000000002 Q 9.602043451171875 1.0985250000000002 9.641328451171875 1.0839750000000001 Q 9.680613451171874 1.069425 9.715533451171876 1.0366875000000002 Q 9.750453451171875 1.0039500000000001 9.775188451171875 0.9486600000000002 L 9.802833451171875 0.9588450000000002 Q 9.788283451171875 1.005405 9.754818451171875 1.0526925000000003 Q 9.721353451171876 1.0999800000000002 9.667518451171874 1.130535 Q 9.613683451171875 1.1610900000000002 9.535113451171874 1.1610900000000002 Q 9.444903451171875 1.1610900000000002 9.372153451171874 1.1145300000000002 Q 9.299403451171875 1.06797 9.256480951171875 0.9813975000000001 Q 9.213558451171874 0.8948250000000002 9.213558451171874 0.7755150000000002 Q 9.213558451171874 0.6562050000000001 9.256480951171875 0.5652675000000001 Q 9.299403451171875 0.47433000000000014 9.376518451171874 0.42267750000000015 Q 9.453633451171875 0.37102500000000016 9.552573451171876 0.37102500000000016 M 10.229327342285156 0.001454999999999984 L 10.229327342285156 0.5456250000000001 Q 10.267157342285156 0.4466850000000001 10.334814842285155 0.4088550000000001 Q 10.402472342285156 0.37102500000000016 10.476677342285155 0.37102500000000016 Q 10.531967342285157 0.37102500000000016 10.569069842285156 0.3855750000000001 Q 10.606172342285156 0.40012500000000006 10.630907342285155 0.4263150000000001 Q 10.658552342285155 0.4554150000000001 10.670192342285155 0.4990650000000001 Q 10.681832342285155 0.5427150000000002 10.681832342285155 0.6169200000000001 L 10.681832342285155 1.005405 Q 10.681832342285155 1.066515 10.707294842285156 1.08834 Q 10.732757342285156 1.110165 10.792412342285155 1.110165 L 10.792412342285155 1.1407200000000002 Q 10.767677342285156 1.1392650000000002 10.716752342285156 1.1370825000000002 Q 10.665827342285155 1.1349000000000002 10.617812342285156 1.1349000000000002 Q 10.569797342285156 1.1349000000000002 10.523964842285157 1.1370825000000002 Q 10.478132342285155 1.1392650000000002 10.454852342285156 1.1407200000000002 L 10.454852342285156 1.110165 Q 10.507232342285155 1.110165 10.529057342285157 1.08834 Q 10.550882342285156 1.066515 10.550882342285156 1.005405 L 10.550882342285156 0.5849100000000002 Q 10.550882342285156 0.5398050000000001 10.543607342285156 0.5019750000000002 Q 10.536332342285156 0.46414500000000014 10.510869842285155 0.44086500000000006 Q 10.485407342285155 0.4175850000000001 10.433027342285156 0.4175850000000001 Q 10.373372342285156 0.4175850000000001 10.327539842285155 0.45105000000000006 Q 10.281707342285156 0.48451500000000014 10.255517342285156 0.5441700000000002 Q 10.229327342285156 0.6038250000000002 10.229327342285156 0.6809400000000001 L 10.229327342285156 1.005405 Q 10.229327342285156 1.066515 10.251152342285156 1.08834 Q 10.272977342285156 1.110165 10.325357342285155 1.110165 L 10.325357342285155 1.1407200000000002 Q 10.302077342285155 1.1392650000000002 10.256244842285156 1.1370825000000002 Q 10.210412342285156 1.1349000000000002 10.162397342285155 1.1349000000000002 Q 10.114382342285156 1.1349000000000002 10.063457342285156 1.1370825000000002 Q 10.012532342285155 1.1392650000000002 9.987797342285155 1.1407200000000002 L 9.987797342285155 1.110165 Q 10.047452342285156 1.110165 10.072914842285156 1.08834 Q 10.098377342285156 1.066515 10.098377342285156 1.005405 L 10.098377342285156 0.17605500000000007 Q 10.098377342285156 0.11058000000000012 10.075097342285156 0.07929750000000002 Q 10.051817342285156 0.04801500000000014 9.987797342285155 0.04801500000000014 L 9.987797342285155 0.01746000000000003 Q 10.034357342285155 0.021824999999999983 10.078007342285156 0.021824999999999983 Q 10.120202342285156 0.021824999999999983 10.158759842285155 0.01673250000000004 Q 10.197317342285155 0.011640000000000095 10.229327342285156 0.001454999999999984 M 11.450236313964842 0.37102500000000016 Q 11.505526313964843 0.37102500000000016 11.542628813964843 0.3855750000000001 Q 11.579731313964842 0.40012500000000006 11.604466313964842 0.4263150000000001 Q 11.632111313964842 0.4554150000000001 11.643751313964842 0.4990650000000001 Q 11.655391313964843 0.5427150000000002 11.655391313964843 0.6169200000000001 L 11.655391313964843 1.005405 Q 11.655391313964843 1.066515 11.680853813964843 1.08834 Q 11.706316313964843 1.110165 11.765971313964842 1.110165 L 11.765971313964842 1.1407200000000002 Q 11.741236313964842 1.1392650000000002 11.690311313964843 1.1370825000000002 Q 11.639386313964842 1.1349000000000002 11.591371313964842 1.1349000000000002 Q 11.543356313964843 1.1349000000000002 11.497523813964843 1.1370825000000002 Q 11.451691313964842 1.1392650000000002 11.428411313964842 1.1407200000000002 L 11.428411313964842 1.110165 Q 11.480791313964843 1.110165 11.502616313964843 1.08834 Q 11.524441313964843 1.066515 11.524441313964843 1.005405 L 11.524441313964843 0.5849100000000002 Q 11.524441313964843 0.5398050000000001 11.517166313964843 0.5019750000000002 Q 11.509891313964843 0.46414500000000014 11.484428813964843 0.44086500000000006 Q 11.458966313964842 0.4175850000000001 11.406586313964842 0.4175850000000001 Q 11.345476313964843 0.4175850000000001 11.299643813964842 0.45250500000000016 Q 11.253811313964842 0.4874250000000001 11.228348813964843 0.5478075000000001 Q 11.202886313964843 0.6081900000000001 11.202886313964843 0.6823950000000001 L 11.202886313964843 1.005405 Q 11.202886313964843 1.066515 11.224711313964843 1.08834 Q 11.246536313964842 1.110165 11.298916313964842 1.110165 L 11.298916313964842 1.1407200000000002 Q 11.275636313964842 1.1392650000000002 11.229803813964843 1.1370825000000002 Q 11.183971313964843 1.1349000000000002 11.135956313964842 1.1349000000000002 Q 11.087941313964842 1.1349000000000002 11.037016313964843 1.1370825000000002 Q 10.986091313964842 1.1392650000000002 10.961356313964842 1.1407200000000002 L 10.961356313964842 1.110165 Q 11.021011313964843 1.110165 11.046473813964843 1.08834 Q 11.071936313964843 1.066515 11.071936313964843 1.005405 L 11.071936313964843 0.5499900000000001 Q 11.071936313964843 0.48451500000000014 11.048656313964843 0.45323250000000015 Q 11.025376313964843 0.42195000000000016 10.961356313964842 0.42195000000000016 L 10.961356313964842 0.39139500000000016 Q 11.007916313964843 0.3957600000000001 11.051566313964843 0.3957600000000001 Q 11.093761313964842 0.3957600000000001 11.132318813964842 0.39066750000000006 Q 11.170876313964843 0.3855750000000001 11.202886313964843 0.3753900000000001 L 11.202886313964843 0.5470800000000001 Q 11.240716313964842 0.4481400000000001 11.308373813964842 0.40958250000000007 Q 11.376031313964843 0.37102500000000016 11.450236313964842 0.37102500000000016 M 12.29134979003906 0.37102500000000016 Q 12.384469790039061 0.37102500000000016 12.458674790039062 0.41176500000000016 Q 12.532879790039061 0.45250500000000016 12.57725729003906 0.5398050000000001 Q 12.62163479003906 0.6271050000000001 12.62163479003906 0.7667850000000002 Q 12.62163479003906 0.9064650000000002 12.57725729003906 0.9930375000000001 Q 12.532879790039061 1.0796100000000002 12.458674790039062 1.1203500000000002 Q 12.384469790039061 1.1610900000000002 12.29134979003906 1.1610900000000002 Q 12.199684790039061 1.1610900000000002 12.12475229003906 1.1203500000000002 Q 12.049819790039061 1.0796100000000002 12.005442290039062 0.9930375000000001 Q 11.96106479003906 0.9064650000000002 11.96106479003906 0.7667850000000002 Q 11.96106479003906 0.6271050000000001 12.005442290039062 0.5398050000000001 Q 12.049819790039061 0.45250500000000016 12.12475229003906 0.41176500000000016 Q 12.199684790039061 0.37102500000000016 12.29134979003906 0.37102500000000016 M 12.29134979003906 0.40012500000000006 Q 12.208414790039061 0.40012500000000006 12.155307290039062 0.4859700000000001 Q 12.10219979003906 0.5718150000000001 12.10219979003906 0.7667850000000002 Q 12.10219979003906 0.9617550000000001 12.155307290039062 1.0468725 Q 12.208414790039061 1.1319900000000003 12.29134979003906 1.1319900000000003 Q 12.374284790039061 1.1319900000000003 12.42739229003906 1.0468725 Q 12.480499790039062 0.9617550000000001 12.480499790039062 0.7667850000000002 Q 12.480499790039062 0.5718150000000001 12.42739229003906 0.4859700000000001 Q 12.374284790039061 0.40012500000000006 12.29134979003906 0.40012500000000006 M 13.053862716796875 0 L 13.053862716796875 1.005405 Q 13.053862716796875 1.066515 13.079325216796875 1.08834 Q 13.104787716796874 1.110165 13.164442716796874 1.110165 L 13.164442716796874 1.1407200000000002 Q 13.139707716796874 1.1392650000000002 13.089510216796874 1.1370825000000002 Q 13.039312716796875 1.1349000000000002 12.988387716796874 1.1349000000000002 Q 12.938917716796874 1.1349000000000002 12.887992716796875 1.1370825000000002 Q 12.837067716796874 1.1392650000000002 12.812332716796874 1.1407200000000002 L 12.812332716796874 1.110165 Q 12.871987716796875 1.110165 12.897450216796875 1.08834 Q 12.922912716796874 1.066515 12.922912716796874 1.005405 L 12.922912716796874 0.1746000000000001 Q 12.922912716796874 0.10912500000000014 12.899632716796875 0.07784250000000004 Q 12.876352716796875 0.04656000000000016 12.812332716796874 0.04656000000000016 L 12.812332716796874 0.016005000000000047 Q 12.858892716796873 0.02037 12.902542716796875 0.02037 Q 12.944737716796874 0.02037 12.983295216796874 0.015277500000000055 Q 13.021852716796875 0.01018500000000011 13.053862716796875 0 M 13.68547963769531 0.37102500000000016 Q 13.778599637695311 0.37102500000000016 13.85280463769531 0.41176500000000016 Q 13.927009637695312 0.45250500000000016 13.971387137695311 0.5398050000000001 Q 14.015764637695312 0.6271050000000001 14.015764637695312 0.7667850000000002 Q 14.015764637695312 0.9064650000000002 13.971387137695311 0.9930375000000001 Q 13.927009637695312 1.0796100000000002 13.85280463769531 1.1203500000000002 Q 13.778599637695311 1.1610900000000002 13.68547963769531 1.1610900000000002 Q 13.593814637695312 1.1610900000000002 13.51888213769531 1.1203500000000002 Q 13.443949637695312 1.0796100000000002 13.399572137695312 0.9930375000000001 Q 13.35519463769531 0.9064650000000002 13.35519463769531 0.7667850000000002 Q 13.35519463769531 0.6271050000000001 13.399572137695312 0.5398050000000001 Q 13.443949637695312 0.45250500000000016 13.51888213769531 0.41176500000000016 Q 13.593814637695312 0.37102500000000016 13.68547963769531 0.37102500000000016 M 13.68547963769531 0.40012500000000006 Q 13.602544637695312 0.40012500000000006 13.549437137695312 0.4859700000000001 Q 13.496329637695311 0.5718150000000001 13.496329637695311 0.7667850000000002 Q 13.496329637695311 0.9617550000000001 13.549437137695312 1.0468725 Q 13.602544637695312 1.1319900000000003 13.68547963769531 1.1319900000000003 Q 13.768414637695312 1.1319900000000003 13.821522137695311 1.0468725 Q 13.874629637695312 0.9617550000000001 13.874629637695312 0.7667850000000002 Q 13.874629637695312 0.5718150000000001 13.821522137695311 0.4859700000000001 Q 13.768414637695312 0.40012500000000006 13.68547963769531 0.40012500000000006 M 14.4989317734375 1.41426 Q 14.421816773437499 1.41426 14.3534317734375 1.3982550000000002 Q 14.2850467734375 1.3822500000000002 14.243579273437499 1.3480575000000001 Q 14.2021117734375 1.3138650000000003 14.2021117734375 1.2614850000000002 Q 14.2021117734375 1.21056 14.242851773437499 1.1741850000000003 Q 14.2835917734375 1.1378100000000002 14.3534317734375 1.1188950000000002 L 14.3621617734375 1.1421750000000002 Q 14.3301517734375 1.1523600000000003 14.3112367734375 1.1829150000000002 Q 14.2923217734375 1.2134700000000003 14.2923217734375 1.2513 Q 14.2923217734375 1.3182300000000002 14.3541592734375 1.3538775000000003 Q 14.415996773437499 1.3895250000000001 14.5149367734375 1.3895250000000001 Q 14.580411773437499 1.3895250000000001 14.6429767734375 1.3727925 Q 14.7055417734375 1.3560600000000003 14.746281773437499 1.3167750000000003 Q 14.7870217734375 1.2774900000000002 14.7870217734375 1.2134700000000003 Q 14.7870217734375 1.1654550000000001 14.752829273437499 1.1341725000000002 Q 14.718636773437499 1.1028900000000001 14.6182417734375 1.1028900000000001 L 14.5105717734375 1.1028900000000001 Q 14.4640117734375 1.1028900000000001 14.420361773437499 1.0956150000000002 Q 14.3767117734375 1.08834 14.3490667734375 1.0650600000000001 Q 14.3214217734375 1.0417800000000002 14.3214217734375 0.9937650000000002 Q 14.3214217734375 0.9442950000000001 14.3621617734375 0.8984625000000002 Q 14.402901773437499 0.8526300000000002 14.5120267734375 0.8046150000000001 L 14.5294867734375 0.8177100000000002 Q 14.4800167734375 0.8439000000000001 14.4436417734375 0.8708175000000001 Q 14.407266773437499 0.8977350000000002 14.407266773437499 0.9341100000000002 Q 14.407266773437499 0.9806700000000002 14.4771067734375 0.9806700000000002 L 14.6589817734375 0.9806700000000002 Q 14.720091773437499 0.9806700000000002 14.7717442734375 0.9981300000000002 Q 14.8233967734375 1.0155900000000002 14.8554067734375 1.0534200000000002 Q 14.887416773437499 1.0912500000000003 14.887416773437499 1.1523600000000003 Q 14.887416773437499 1.2207450000000002 14.8437667734375 1.2804000000000002 Q 14.8001167734375 1.3400550000000002 14.713544273437499 1.3771575000000003 Q 14.6269717734375 1.41426 14.4989317734375 1.41426 M 14.5062067734375 0.8308050000000001 Q 14.4349117734375 0.8308050000000001 14.3767117734375 0.8067975000000002 Q 14.3185117734375 0.7827900000000001 14.2850467734375 0.7318650000000002 Q 14.251581773437499 0.6809400000000001 14.251581773437499 0.6009150000000001 Q 14.251581773437499 0.5208900000000001 14.2850467734375 0.4699650000000001 Q 14.3185117734375 0.4190400000000001 14.3767117734375 0.3950325000000001 Q 14.4349117734375 0.37102500000000016 14.5062067734375 0.37102500000000016 Q 14.578956773437499 0.37102500000000016 14.6364292734375 0.3950325000000001 Q 14.6939017734375 0.4190400000000001 14.727366773437499 0.4699650000000001 Q 14.7608317734375 0.5208900000000001 14.7608317734375 0.6009150000000001 Q 14.7608317734375 0.6809400000000001 14.727366773437499 0.7318650000000002 Q 14.6939017734375 0.7827900000000001 14.6364292734375 0.8067975000000002 Q 14.578956773437499 0.8308050000000001 14.5062067734375 0.8308050000000001 M 14.5062067734375 0.8046150000000001 Q 14.561496773437499 0.8046150000000001 14.5927792734375 0.7609650000000001 Q 14.6240617734375 0.7173150000000001 14.6240617734375 0.6009150000000001 Q 14.6240617734375 0.48451500000000014 14.5927792734375 0.44086500000000006 Q 14.561496773437499 0.3972150000000001 14.5062067734375 0.3972150000000001 Q 14.4523717734375 0.3972150000000001 14.420361773437499 0.44086500000000006 Q 14.388351773437499 0.48451500000000014 14.388351773437499 0.6009150000000001 Q 14.388351773437499 0.7173150000000001 14.420361773437499 0.7609650000000001 Q 14.4523717734375 0.8046150000000001 14.5062067734375 0.8046150000000001 M 14.715726773437499 0.49179000000000017 L 14.6895367734375 0.48160500000000017 Q 14.709906773437499 0.43213500000000016 14.7593767734375 0.3943050000000001 Q 14.8088467734375 0.3564750000000001 14.8626817734375 0.3564750000000001 Q 14.900511773437499 0.3564750000000001 14.9237917734375 0.3775725000000001 Q 14.9470717734375 0.3986700000000001 14.9470717734375 0.44086500000000006 Q 14.9470717734375 0.4859700000000001 14.9230642734375 0.5041575000000001 Q 14.899056773437499 0.5223450000000002 14.874321773437499 0.5223450000000002 Q 14.8524967734375 0.5223450000000002 14.8335817734375 0.5070675000000001 Q 14.8146667734375 0.49179000000000017 14.8117567734375 0.4583250000000001 Q 14.8088467734375 0.4248600000000001 14.8321267734375 0.37248000000000014 L 14.8510417734375 0.3768450000000001 Q 14.7899317734375 0.40012500000000006 14.7637417734375 0.4255875000000001 Q 14.737551773437499 0.45105000000000006 14.715726773437499 0.49179000000000017 M 15.764969189941406 0.39139500000000016 L 15.764969189941406 0.42049500000000006 Q 15.737324189941406 0.42340500000000014 15.714044189941406 0.4452300000000001 Q 15.690764189941406 0.4670550000000001 15.670394189941407 0.5223450000000002 L 15.431774189941406 1.147995 L 15.407039189941406 1.147995 L 15.139319189941407 0.5034300000000002 Q 15.111674189941406 0.4466850000000001 15.084756689941406 0.43431750000000013 Q 15.057839189941406 0.42195000000000016 15.040379189941406 0.42195000000000016 L 15.040379189941406 0.39139500000000016 Q 15.072389189941406 0.3957600000000001 15.107309189941406 0.3979425000000001 Q 15.142229189941407 0.40012500000000006 15.182969189941407 0.40012500000000006 Q 15.228074189941406 0.40012500000000006 15.278271689941405 0.3972150000000001 Q 15.328469189941407 0.3943050000000001 15.372119189941406 0.39139500000000016 L 15.372119189941406 0.42195000000000016 Q 15.335744189941407 0.42195000000000016 15.307371689941407 0.4270425000000001 Q 15.278999189941405 0.43213500000000016 15.271724189941406 0.4575975000000001 Q 15.264449189941406 0.48306000000000016 15.289184189941407 0.5441700000000002 L 15.468149189941407 0.9879450000000002 L 15.459419189941407 0.9908550000000002 L 15.625289189941407 0.5572650000000001 Q 15.644204189941407 0.5092500000000001 15.640566689941407 0.48087750000000007 Q 15.636929189941407 0.45250500000000016 15.610739189941405 0.4379550000000001 Q 15.584549189941406 0.42340500000000014 15.532169189941406 0.42049500000000006 L 15.532169189941406 0.39139500000000016 Q 15.558359189941406 0.39285000000000014 15.577274189941406 0.39357750000000014 Q 15.596189189941406 0.3943050000000001 15.614376689941405 0.3950325000000001 Q 15.632564189941407 0.3957600000000001 15.654389189941407 0.3957600000000001 Q 15.687854189941406 0.3957600000000001 15.714771689941406 0.3943050000000001 Q 15.741689189941406 0.39285000000000014 15.764969189941406 0.39139500000000016 M 15.431774189941406 1.147995 L 15.382304189941406 1.2745800000000003 Q 15.367754189941406 1.3109550000000003 15.352476689941406 1.3356900000000003 Q 15.337199189941407 1.3604250000000002 15.319739189941407 1.3764300000000003 Q 15.296459189941407 1.3982550000000002 15.264449189941406 1.4062575000000002 Q 15.232439189941406 1.41426 15.206249189941406 1.41426 Q 15.178604189941407 1.41426 15.156051689941407 1.4040750000000002 Q 15.133499189941407 1.3938900000000003 15.120404189941405 1.3742475000000003 Q 15.107309189941406 1.3546050000000003 15.107309189941406 1.3269600000000001 Q 15.107309189941406 1.29204 15.127679189941407 1.2709425000000003 Q 15.148049189941407 1.249845 15.184424189941407 1.249845 Q 15.214979189941406 1.249845 15.236804189941406 1.2673050000000001 Q 15.258629189941406 1.2847650000000002 15.258629189941406 1.3182300000000002 Q 15.258629189941406 1.3429650000000002 15.246989189941406 1.3589700000000002 Q 15.235349189941406 1.3749750000000003 15.219344189941406 1.3837050000000002 Q 15.222254189941406 1.3851600000000002 15.224436689941406 1.3851600000000002 Q 15.226619189941406 1.3851600000000002 15.228074189941406 1.3851600000000002 Q 15.267359189941406 1.3851600000000002 15.297914189941407 1.3582425000000002 Q 15.328469189941407 1.331325 15.351749189941406 1.2716700000000003 L 15.404129189941406 1.1363550000000002 L 15.431774189941406 1.147995" fill="#ffffff" fill-rule="nonzero"></path></g><g></g><g clip-path="url(#SvgjsClipPath1001)"><g clip-path="url(#SvgjsClipPath10004e3aefde-7005-4bf3-a2ec-a546d4d42a32)"><path d=" M 1.2672338339669347 -11.624455458349138 C 0.9504491802806756 -12.176163976596634 1.138170163022639 -12.880117661878987 1.687601759745146 -13.200835180017481 C 2.239443836931175 -13.51659774454348 2.942639214240222 -13.32907897726107 3.2639814814134973 -12.780467254239257 L 6.386964863340896 -7.385745540085369 C 6.600652406678553 -7.023752603439474 6.600652406678553 -6.574211350600387 6.386964863340896 -6.212218413954491 L 3.270987613509804 -0.833260497017287 C 2.9503127532954627 -0.27993916958861753 2.241798853685867 -0.0913419445126813 1.688477526257198 -0.41201680472702584 C 1.1351561988285248 -0.7326916649413704 0.9465589737525928 -1.4412055645509607 1.2672338339669347 -1.994526891979632 L 4.0574259413199 -6.805988109116234 Z" fill="#bdbfc3" transform="matrix(1,0,0,1,0,0)" fill-rule="evenodd"></path></g><g clip-path="url(#SvgjsClipPath10004e3aefde-7005-4bf3-a2ec-a546d4d42a32)"><path d=" M 5.32903891679903 -11.624455458349138 C 5.012551074749187 -12.176620771891965 5.201091579160499 -12.880713941892713 5.751158375601336 -13.200835180017481 C 6.3028668938488215 -13.517619833703728 7.0068205791311735 -13.329898850961767 7.327538097269673 -12.780467254239257 L 10.445266880124846 -7.380490941013141 C 10.658204195633664 -7.01829345061144 10.658204195633664 -6.569161305283965 10.445266880124846 -6.206963814882262 L 7.33279269634191 -0.833260497017287 C 7.012117836127563 -0.27993916958861753 6.303603936517972 -0.0913419445126813 5.7502826090892984 -0.41201680472702584 C 5.19696128166063 -0.7326916649413704 5.008364056584698 -1.4412055645509607 5.329038916799035 -1.994526891979632 L 8.110473359031623 -6.805988109116234 Z" fill="#e8a941" transform="matrix(1,0,0,1,0,0)" fill-rule="evenodd"></path></g><g clip-path="url(#SvgjsClipPath10004e3aefde-7005-4bf3-a2ec-a546d4d42a32)"><path d=" M 9.39084399963113 -11.624455458349138 C 9.074356157581278 -12.176620771891965 9.26289666199259 -12.880713941892713 9.812963458433432 -13.200835180017481 C 10.364671976680922 -13.517619833703728 11.068625661963274 -13.329898850961767 11.389343180101774 -12.780467254239257 L 14.507071962956937 -7.380490941013141 C 14.720009278465755 -7.01829345061144 14.720009278465755 -6.569161305283965 14.507071962956937 -6.206963814882262 L 11.394597779174001 -0.833260497017287 C 11.073922918959664 -0.27993916958861753 10.365409019350073 -0.0913419445126813 9.812087691921395 -0.41201680472702584 C 9.258766364492725 -0.7326916649413704 9.070169139416784 -1.4412055645509607 9.39084399963113 -1.994526891979632 L 12.174029974887798 -6.805988109116234 Z" fill="#262626" transform="matrix(1,0,0,1,0,0)" fill-rule="evenodd"></path></g></g></g><defs><clipPath id="SvgjsClipPath1001"><path d=" M 1.1113473948241683 -13.363727751256544 h 13.556865606347756 v 13.113727751256544 h -13.556865606347756 Z"></path></clipPath><clipPath id="SvgjsClipPath10004e3aefde-7005-4bf3-a2ec-a546d4d42a32"><path d=" M 1.1113473948241683 -13.363727751256544 L 14.668213001171925 -13.363727751256544 L 14.668213001171925 -0.25 L 1.1113473948241683 -0.25 Z"></path></clipPath></defs></svg>