<svg xmlns="http://www.w3.org/2000/svg" version="1.1" xmlns:xlink="http://www.w3.org/1999/xlink" xmlns:svgjs="http://svgjs.dev/svgjs" viewBox="0 0 7.653077533958299 7.377170995320681"><g transform="matrix(1,0,0,1,3.821113699168982,5.70524471385717)"><g><path d=" M -1.8958912020335097 0.21229128107993334 Q -1.9349019058580315 0.24630651504797477 -1.9799771252998855 0.2677943092996515 Q -2.0250523447417397 0.2892821035513283 -2.0733421298869334 0.2970531185002327 Q -2.1216319150321272 0.3048241334491371 -2.172102879968502 0.2989490597064458 Q -2.2225738449048764 0.29307398596375456 -2.2725836160093875 0.27286839513061 Q -2.3225933871138986 0.25266280429746546 -2.370901002183439 0.21769247579749423 Q -2.4192086172529796 0.18272214729752306 -2.4631717026645044 0.1323026527318676 Q -2.4914107648266524 0.09991640804735896 -2.5131948081507804 0.06676047190092066 Q -2.534978851474909 0.033604535754482356 -2.5505861428631427 0.0012172052458233606 Q -2.5661934342513764 -0.031170125262835635 -2.5762231390395005 -0.06161857854178493 Q -2.586252843827625 -0.09206703182073411 -2.5916721528592044 -0.11908543784438247 L -2.5022466022575895 -0.14134618103043994 Q -2.494212978682606 -0.11207249488600285 -2.4780772125697634 -0.07982205005711535 Q -2.4619414464569207 -0.04757160522822784 -2.437232267065042 -0.01923364112928283 Q -2.404179728397983 0.01867298617190344 -2.3623237224480302 0.039185988810963635 Q -2.320467716498078 0.05969899145002383 -2.2749044822148505 0.06143153045891603 Q -2.2293412479316226 0.06316406946780823 -2.1821139936023783 0.045630301653459604 Q -2.1348867392731345 0.028096533839110982 -2.090723678339714 -0.010411278200181229 Q -2.0469286429140716 -0.04859819180581265 -2.0229665250252333 -0.09281380893410301 Q -1.999004407136395 -0.13702942606239343 -1.994171710391026 -0.18238058851209127 Q -1.989339013645657 -0.2277317509617891 -2.00361667004928 -0.27196767415468726 Q -2.0178943264529035 -0.31620359734758546 -2.050625966686302 -0.3537421991409932 Q -2.073730653909877 -0.3802400357010457 -2.1032757875195762 -0.40112214967203474 Q -2.1328209211292757 -0.4220042636430239 -2.1627475668744984 -0.43477973953357196 L -2.128516546862535 -0.5203408700575326 Q -2.1021197838875807 -0.511613674752548 -2.073665240173472 -0.49755460512735694 Q -2.045210696459363 -0.4834955355021657 -2.0155713087014284 -0.46399126941405516 Q -1.985931920943494 -0.44448700332594465 -1.9562117656650688 -0.41857484547393253 Q -1.9264916103866438 -0.39266268762192036 -1.8982525482244963 -0.36027644293741173 Q -1.8324683693240387 -0.2848312138428178 -1.801946120207442 -0.2048766625767769 Q -1.7714238710908452 -0.124922111310736 -1.772979216782711 -0.0490652915986574 Q -1.7745345624745765 0.026791528113421226 -1.806138867139541 0.0941904283374766 Q -1.8377431718045056 0.16158932856153194 -1.8958912020335097 0.21229128107993334 M -2.833031425526272 -0.40801687121922964 L -2.932597653716526 -0.6720971597387113 L -2.6479574811427593 -0.7794150838953345 L -2.7215124628680853 -0.9745055392548825 L -3.006152635441852 -0.8671876150982591 L -3.1058911235424698 -1.1317247899300584 L -2.4267858035283867 -1.3872461304182901 L -2.3272195753381326 -1.1231658418988082 L -2.616885497347391 -1.0139530587281838 L -2.543330515622065 -0.8188626033686358 L -2.2536645936128066 -0.9280753865392604 L -2.1540983654225525 -0.6639950980197787 L -2.833031425526272 -0.40801687121922964 M -3.181100556203706 -1.6010161620072554 L -3.1713404334404753 -2.019359354859978 Q -3.169449907911075 -2.1003919919819753 -3.1509468191901098 -2.1607678650431783 Q -3.132443730469144 -2.2211437381043813 -3.100739423117392 -2.261186642269047 Q -3.06903511576564 -2.301229546433713 -3.0255997293862995 -2.320729573617669 Q -2.9821643430069584 -2.340229600801625 -2.9304206108688153 -2.3390223977527302 Q -2.866473168320733 -2.337530477003625 -2.8176322039529023 -2.306109321324119 Q -2.768791239585071 -2.274688165644613 -2.740891756978246 -2.2144507363636023 L -2.4371272039951046 -2.3597489868544574 L -2.4445640303246137 -2.0409880709468404 L -2.710851910269296 -1.9319349470015685 L -2.7122413326463253 -1.8723808402010644 L -2.4491293362080317 -1.8662423265845167 L -2.4557120094369083 -1.584092541906718 L -3.181100556203706 -1.6010161620072554 M -2.8001975912339914 -1.8915273909245065 Q -2.799388992965392 -1.9261859284887344 -2.808514193644871 -1.9537500139671673 Q -2.8176393943243503 -1.9813140994456004 -2.8350126519105325 -2.000767575527414 Q -2.852385909496715 -2.0202210516092274 -2.8767982416566156 -2.0310472981080023 Q -2.901210573816516 -2.0418735446067777 -2.9304994788003706 -2.042556867087284 Q -2.959788383784225 -2.04324018956779 -2.98467904168048 -2.033564202577867 Q -3.0095696995767343 -2.023888215587944 -3.027831276387575 -2.0052661151907465 Q -3.0460928531984157 -1.986644014793549 -3.0564935891748397 -1.9595354776354534 Q -3.0668943251512637 -1.932426940477358 -3.067702923419863 -1.89776840291313 L -3.0680901394921496 -1.8811713567556123 L -2.800596196014286 -1.8744421963505915 L -2.8001975912339914 -1.8915273909245065 M -3.0678723298369928 -2.7136394817282095 L -2.982444126997931 -2.9831384706618884 L -2.29092414538721 -2.7634220485413716 L -2.376204803834494 -2.4943885155471293 L -3.0678723298369928 -2.7136394817282095 M -2.359098873788952 -3.0417459999513836 Q -2.30907973718579 -3.0712787902855103 -2.2675666894099846 -3.1120051258550085 Q -2.2260536416341794 -3.1527314614245068 -2.1998576424687446 -3.1939377160315465 Q -2.1697322434284945 -3.241324908829642 -2.16931544789531 -3.2720149347690013 Q -2.1688986523621248 -3.302704960708361 -2.1923862174881372 -3.317636680232659 Q -2.1998033433174045 -3.322351960082437 -2.209335271638495 -3.3246507933744125 Q -2.218867199959586 -3.326949626666387 -2.2313366169074937 -3.3241727294096903 Q -2.2438060338554013 -3.3213958321529935 -2.25994289068647 -3.3128500592513115 Q -2.2760797475175387 -3.304304286349629 -2.297118792912832 -3.2875923138037466 L -2.3691454467292545 -3.2298126775480616 Q -2.446637893167536 -3.167986028151733 -2.518405048790927 -3.1574864602440194 Q -2.5901722044143183 -3.1469868923363054 -2.6540418990552292 -3.1875906910427294 Q -2.6952481536622686 -3.213786690208164 -2.7223616195242974 -3.2553246163711482 Q -2.7494750853863263 -3.2968625425341322 -2.7562588955936693 -3.3503560383617472 Q -2.7630427058010123 -3.403849534189362 -2.746425513816731 -3.468213953554961 Q -2.729808321832449 -3.5325783729205598 -2.684227283284592 -3.6042772559368084 Q -2.661698724002318 -3.639714634898862 -2.6368832592009204 -3.6696479761218797 Q -2.612067794399523 -3.6995813173448973 -2.5872685742424193 -3.72402830443032 Q -2.562469354085316 -3.748475291515743 -2.5388283923749206 -3.767004739358912 Q -2.515187430664525 -3.7855341872020807 -2.4954199401103256 -3.798425739396091 L -2.4433594227252686 -3.70284078604789 Q -2.459983393379616 -3.6948939844067246 -2.4754639112744012 -3.6841951638960406 Q -2.4909444291691862 -3.6734963433853567 -2.5043646343336197 -3.6614877229164016 Q -2.517784839498053 -3.649479102447446 -2.528751791944653 -3.6367787758393244 Q -2.539718744391253 -3.624078449231203 -2.5470536241575745 -3.6125406979412316 Q -2.5596277037569832 -3.5927616957298527 -2.56390748163066 -3.5746529441756394 Q -2.5681872595043367 -3.5565441926214256 -2.5661579971054254 -3.5410784804137867 Q -2.5641287347065136 -3.525612768206148 -2.556895639677398 -3.5137820065930825 Q -2.5496625446482826 -3.5019512449800163 -2.5393609809965225 -3.4954022451886577 Q -2.5302956049829737 -3.489639125372262 -2.51909774287616 -3.488595602277087 Q -2.5078998807693464 -3.4875520791819117 -2.493184681333788 -3.492951454269447 Q -2.4784694818982294 -3.4983508293569825 -2.459562922596201 -3.510343205181644 Q -2.4406563632941727 -3.5223355810063053 -2.415761530344125 -3.5423822990379286 L -2.367843829502787 -3.581351404900202 Q -2.2899775656356134 -3.644676201926396 -2.2160205562431905 -3.6572552051230507 Q -2.1420635468507676 -3.6698342083197053 -2.075309414387364 -3.6273966896717007 Q -2.0299825343196205 -3.598581090589722 -2.004627737121964 -3.553821715335383 Q -1.9792729399243076 -3.5090623400810443 -1.9771307972466823 -3.450997911129477 Q -1.974988654569057 -3.39293348217791 -1.997651487877125 -3.3231548820376293 Q -2.020314321185193 -3.253376281897349 -2.0706106395828283 -3.1742602730518334 Q -2.0947109588150283 -3.136350518813357 -2.121023132289144 -3.1036077910450546 Q -2.1473353057632596 -3.0708650632767522 -2.1765142334584264 -3.0422592056134476 Q -2.2056931611535937 -3.0136533479501435 -2.2383378143303285 -2.9886972465685586 Q -2.270982467507064 -2.9637411451869733 -2.3077477461445026 -2.941404643721932 L -2.359098873788952 -3.0417459999513836 M -2.0653966524055756 -4.154616941155629 L -2.2246395590829917 -4.022315636742217 L -2.2960947447213673 -4.108321829263746 L -1.7605277991506227 -4.553278574767342 L -1.6890726135122471 -4.467272382245813 L -1.8483155201896635 -4.334971077832401 L -1.4557800462460984 -3.8625003783036522 L -1.6728611784620102 -3.682146241626879 L -2.0653966524055756 -4.154616941155629 M -1.362888970359234 -4.384396229473568 Q -1.3913984632429164 -4.461834474890384 -1.390356560862143 -4.535323150019268 Q -1.38931465848137 -4.608811825148153 -1.3573239278402613 -4.6731418755958005 Q -1.3253331971991527 -4.7374719260434475 -1.2614658145648077 -4.790123172225287 Q -1.1975984319304627 -4.842774418407126 -1.1004569643070015 -4.878537805929852 Q -1.0033154966835403 -4.914301193452578 -0.9205542489428495 -4.915632419003155 Q -0.8377930012021588 -4.916963644553732 -0.7717258352799623 -4.888734372077138 Q -0.7056586693577658 -4.8605050996005446 -0.6572134089869643 -4.805235508681351 Q -0.6087681486161629 -4.7499659177621565 -0.5802586557324805 -4.672527672345341 Q -0.5514117724004706 -4.594172997988681 -0.5522006319449981 -4.5199970011549135 Q -0.5529894914895256 -4.445821004321147 -0.5849802221306343 -4.381490953873499 Q -0.6169709527717429 -4.317160903425852 -0.6808383354060878 -4.264509657244012 Q -0.7447057180404328 -4.211858411062172 -0.841847185663894 -4.176095023539447 Q -0.9389886532873553 -4.140331636016721 -1.021749901028046 -4.139000410466144 Q -1.104511148768737 -4.137669184915567 -1.1705783146909332 -4.165898457392161 Q -1.2366454806131297 -4.194127729868755 -1.2853437838201769 -4.250084642492832 Q -1.334042087027224 -4.3060415551169084 -1.362888970359234 -4.384396229473568 M -0.8767670970658009 -4.270945418813298 Q -0.8492742288704818 -4.281067132263126 -0.8317389629615102 -4.298449616443023 Q -0.8142036970525386 -4.315832100622919 -0.810289457158949 -4.349012735237238 Q -0.8063752172653591 -4.382193369851557 -0.8176002604046255 -4.435296085129597 Q -0.828825303543892 -4.488398800407636 -0.8588530534450485 -4.56996097605375 Q -0.8885434128978775 -4.65060672276002 -0.9142626238504837 -4.697852976394895 Q -0.9399818348030897 -4.745099230029771 -0.9643081968204995 -4.767362546276012 Q -0.9886345588379092 -4.789625862522254 -1.0132550241617604 -4.791488386079081 Q -1.0378754894856117 -4.793350909635907 -1.0653683576809307 -4.783229196186079 Q -1.09286122587625 -4.773107482736251 -1.1106255990201825 -4.755640650944272 Q -1.128389972164115 -4.738173819152294 -1.1324729072818687 -4.705451399007897 Q -1.136555842399622 -4.6727289788635 -1.1254994944845196 -4.620084478055382 Q -1.1144431465694171 -4.567439977247266 -1.084752787116588 -4.486794230540996 Q -1.0547250372154313 -4.405232054894882 -1.0288371310386615 -4.357527586790084 Q -1.0029492248618914 -4.309823118685286 -0.978454167620318 -4.287101587969123 Q -0.9539591103787446 -4.26438005725296 -0.9291095378199323 -4.262601881308215 Q -0.9042599652611202 -4.26082370536347 -0.8767670970658009 -4.270945418813298 M -0.29053217837867945 -5.066365932275575 L 0.058567522325173815 -5.062501081738187 Q 0.15524669098237714 -5.061919066765181 0.22511886560744793 -5.043810471762241 Q 0.2949910402325187 -5.025701876759301 0.3400416584562819 -4.992974588162893 Q 0.38509227668004525 -4.960247299566486 0.4063194627032802 -4.9148435119244995 Q 0.4275466487265151 -4.869439724282513 0.42693584018004666 -4.814267324031414 Q 0.42640070702871585 -4.765930442395496 0.4056490894722912 -4.721968020554382 Q 0.3848974719158666 -4.678005598713267 0.34229076031032374 -4.644783822801264 Q 0.2996840487047809 -4.6115620468892615 0.2342808753956937 -4.5922653613198685 Q 0.16887770208660652 -4.572968675750475 0.07903945742995055 -4.573963266657998 L -0.013728295204639807 -4.574990289877724 L -0.016355312492990826 -4.337700143665034 L -0.2985645810340079 -4.340824456407148 L -0.29053217837867945 -5.066365932275575 M -0.012549921194638713 -4.681429079742675 Q 0.021144825936974254 -4.681544359482009 0.047621208138407145 -4.691261620930135 Q 0.07409759033984009 -4.700978882378261 0.09236018610299712 -4.718600056652117 Q 0.1106227818661541 -4.736221230925974 0.12042206014084039 -4.761260769388588 Q 0.13022133841552658 -4.786300307851203 0.13056728307901316 -4.81754839294917 Q 0.13090782235713266 -4.8483082267174815 0.12141847041773385 -4.873317152237264 Q 0.11192911847833481 -4.898326077757046 0.09381699018213935 -4.916349953240742 Q 0.07570486188594383 -4.934373828724438 0.04969692884206833 -4.944916294764342 Q 0.023688995798192836 -4.9554587608042455 -0.009501283847663466 -4.956802829668511 L -0.012549921194638713 -4.681429079742675 M 0.8176351489481524 -4.980106664315819 L 1.0797408916036906 -4.875452891103597 L 0.9669393332797906 -4.59294099201294 L 1.160571084341927 -4.515627564397683 L 1.273372642665827 -4.79813946348834 L 1.535931855464368 -4.693304628384748 L 1.2664204147446152 -4.019629057774163 L 1.0043146720890768 -4.1242828309863855 L 1.1191079112180535 -4.4117829016500725 L 0.9254761601559173 -4.4890963292653305 L 0.8106829210269404 -4.201596258601643 L 0.5485771783714022 -4.306250031813865 L 0.8176351489481524 -4.980106664315819 M 2.2443664237145327 -4.16618224534147 L 2.4199119099307573 -3.945194429275344 L 2.181719160087858 -3.755981906935019 L 2.3114041473098785 -3.5927262019865145 L 2.5495968971527785 -3.78193872432684 L 2.725446095282872 -3.560568576399009 L 2.1569972368737402 -3.1096350042515275 L 1.9814517506575153 -3.330622820317653 L 2.223850150979182 -3.523176173710536 L 2.094165163757161 -3.6864318786590404 L 1.8517667634354944 -3.493878525266157 L 1.6762212772192695 -3.714866341332282 L 2.2443664237145327 -4.16618224534147 M 2.8192921882279705 -2.8964280896113954 L 2.969950160980964 -3.030156034246225 L 3.05666119286558 -2.745716026537619 L 2.465796397708443 -2.19397279168657 L 2.3728205293658253 -2.4989634731869304 L 2.468318901003494 -2.5842272275982365 L 2.384882669994652 -2.8579248376429702 L 2.258202498713747 -2.874947391422444 L 2.2221796890802366 -2.9931137657250337 L 2.8192921882279705 -2.8964280896113954 M 2.5603256389630773 -2.6658742343486153 L 2.724118494711523 -2.8117737786148567 L 2.5069321464232894 -2.8410220223465252 L 2.5603256389630773 -2.6658742343486153 M 2.99343677450187 -1.8475524923561388 L 3.181332330549774 -1.9201902783063374 L 3.163160381131534 -1.6233827627510409 L 2.416720389658291 -1.3129489654779167 L 2.43620525496225 -1.6312007021899175 L 2.5554812863878116 -1.677709573699838 L 2.57296693886579 -1.9633076100141298 L 2.460225647871418 -2.0235324756250797 L 2.4677749142142997 -2.1468367472761303 L 2.99343677450187 -1.8475524923561388 M 2.6702218048624884 -1.7220501528731205 L 2.8746779507363636 -1.8015011505114682 L 2.6814114288884983 -1.9048134013677611 L 2.6702218048624884 -1.7220501528731205 M 2.5155301882071863 -1.1376175819497734 Q 2.471001636419436 -1.1003173432490503 2.4366919777684424 -1.0533618870399155 Q 2.4023823191174487 -1.006406430830781 2.3832626639474195 -0.9614773247057442 Q 2.361275060501886 -0.9098088526619521 2.3658726500071827 -0.8794622946789479 Q 2.3704702395124793 -0.8491157366959436 2.39607983000375 -0.8382175332490271 Q 2.404167069106257 -0.834775995318422 2.4139463768560656 -0.8340636527342438 Q 2.4237256846058743 -0.8333513101500656 2.4355747054454615 -0.838126058576742 Q 2.4474237262850487 -0.8429008070034184 2.46194949884844 -0.8539656302876 Q 2.4764752714118314 -0.8650304535717815 2.494504731202753 -0.8849520508261953 L 2.5561356686933774 -0.9537121611362932 Q 2.6224986166623574 -1.0273570724841443 2.6915899265679517 -1.0494286933591472 Q 2.760681236473546 -1.0715003142341502 2.830321350967353 -1.041864848720605 Q 2.8752504570923896 -1.022745193550576 2.9087796250866362 -0.9861892879457836 Q 2.942308793080883 -0.9496333823409914 2.957732106004509 -0.8979642852398397 Q 2.973155418928135 -0.8462951881386881 2.967265690055463 -0.7800817405353535 Q 2.9613759611827906 -0.7138682929320188 2.92810776118694 -0.635691648274455 Q 2.911664857740715 -0.5970526170069235 2.8920674195438885 -0.5634705886851474 Q 2.872469981347062 -0.5298885603633714 2.851993164023886 -0.5017219764336756 Q 2.8315163467007096 -0.4735553925039797 2.8112164799464603 -0.45141604026131454 Q 2.790916613192211 -0.42927668801864916 2.773518143692391 -0.41333181235763883 L 2.706555614332201 -0.49913857455423505 Q 2.7216597252116177 -0.509691957480241 2.7351865687157333 -0.5227738418791246 Q 2.748713412219849 -0.5358557262780083 2.759993800417713 -0.5498935934353935 Q 2.771274188615577 -0.5639314605927785 2.7800213266796385 -0.5782513739167895 Q 2.7887684647437005 -0.5925712872408005 2.7941219681913085 -0.6051514369558108 Q 2.8032994026729225 -0.6267174078958284 2.8045663402685035 -0.6452818429970952 Q 2.8058332778640844 -0.663846278098362 2.801307126625109 -0.678773438408852 Q 2.7967809753861337 -0.6937005987193419 2.787714010220503 -0.7041922490533289 Q 2.778647045054872 -0.7146838993873159 2.7674147685236132 -0.7194638131798232 Q 2.757530365176105 -0.7236701373172295 2.7463123346276195 -0.7228721104839566 Q 2.735094304079134 -0.7220740836506838 2.7214576163163944 -0.7143454943469552 Q 2.7078209285536547 -0.7066169050432264 2.6911250959637103 -0.6916996587594919 Q 2.6744292633737663 -0.6767824124757573 2.6531399648820906 -0.6529414942639408 L 2.612224736228041 -0.6066744289819084 Q 2.5457374896652105 -0.5314904478986058 2.474825063857539 -0.5070098754836512 Q 2.403912638049867 -0.48252930306869657 2.3311274861273077 -0.5135031444441436 Q 2.2817054693897676 -0.5345347651311756 2.2493856300026476 -0.5745559519711958 Q 2.217065790615528 -0.614577138811216 2.2054759060477567 -0.6715134300535215 Q 2.1938860214799853 -0.7284497212958271 2.204856704955489 -0.8009914413965162 Q 2.2158273884309927 -0.8735331614972055 2.2525371263574483 -0.9597970452572759 Q 2.270127209113875 -1.0011318228923096 2.2907427793661284 -1.0377298413880631 Q 2.311358349618382 -1.0743278598838168 2.3354773987457125 -1.107312346893416 Q 2.3595964478730433 -1.1402968339030155 2.3877304162336266 -1.170246127742486 Q 2.4158643845942103 -1.2001954215819566 2.4484912635672975 -1.228232749904424 L 2.5155301882071863 -1.1376175819497734 M 2.573026502815864 -0.009899957763531586 L 2.1682291319969083 0.4508092565784687 L 2.084230397853343 0.3770046404020826 L 2.3024213373791653 0.1286765049645553 L 2.1556541418534305 -0.0009289527685205634 L 1.9887074554806445 0.18907691747762279 L 1.9047087213370792 0.11527230130123667 L 2.0716554077098652 -0.07473356894490663 L 1.9256663413817472 -0.20300534727766495 L 1.707153110955591 0.04568959485917912 L 1.6231543768120258 -0.028115021317207 L 2.027951747630982 -0.48882423565920724 L 2.573026502815864 -0.009899957763531586" fill="#404040" fill-rule="nonzero"></path></g><g><path d=" M -3.0524842529296867 1.0427925550133805 L -3.0524842529296867 0.6877925550133805 L -2.931984252929687 0.6877925550133805 Q -2.875484252929687 0.6877925550133805 -2.837734252929687 0.7115425550133805 Q -2.799984252929687 0.7352925550133805 -2.780984252929687 0.7755425550133805 Q -2.761984252929687 0.8157925550133805 -2.761984252929687 0.8647925550133806 Q -2.761984252929687 0.9187925550133805 -2.782734252929687 0.9587925550133806 Q -2.803484252929687 0.9987925550133805 -2.8417342529296867 1.0207925550133805 Q -2.879984252929687 1.0427925550133805 -2.931984252929687 1.0427925550133805 L -3.0524842529296867 1.0427925550133805 M -2.796984252929687 0.8647925550133806 Q -2.796984252929687 0.8222925550133805 -2.812734252929687 0.7892925550133805 Q -2.828484252929687 0.7562925550133806 -2.8584842529296868 0.7375425550133805 Q -2.888484252929687 0.7187925550133805 -2.931984252929687 0.7187925550133805 L -3.017484252929687 0.7187925550133805 L -3.017484252929687 1.0117925550133806 L -2.931984252929687 1.0117925550133806 Q -2.887984252929687 1.0117925550133806 -2.857984252929687 0.9922925550133805 Q -2.827984252929687 0.9727925550133805 -2.812484252929687 0.9395425550133805 Q -2.796984252929687 0.9062925550133805 -2.796984252929687 0.8647925550133806 M -2.689970825195312 1.0427925550133805 L -2.689970825195312 0.6877925550133805 L -2.539970825195312 0.6877925550133805 Q -2.5169708251953122 0.6877925550133805 -2.497970825195312 0.6972925550133805 Q -2.478970825195312 0.7067925550133805 -2.464720825195312 0.7230425550133806 Q -2.4504708251953122 0.7392925550133805 -2.442720825195312 0.7590425550133806 Q -2.434970825195312 0.7787925550133805 -2.434970825195312 0.7992925550133805 Q -2.434970825195312 0.8247925550133806 -2.444720825195312 0.8472925550133805 Q -2.454470825195312 0.8697925550133805 -2.472220825195312 0.8852925550133806 Q -2.489970825195312 0.9007925550133805 -2.513970825195312 0.9057925550133805 L -2.426970825195312 1.0427925550133805 L -2.4664708251953122 1.0427925550133805 L -2.549970825195312 0.9117925550133805 L -2.654970825195312 0.9117925550133805 L -2.654970825195312 1.0427925550133805 L -2.689970825195312 1.0427925550133805 M -2.654970825195312 0.8807925550133805 L -2.538970825195312 0.8807925550133805 Q -2.517970825195312 0.8807925550133805 -2.502470825195312 0.8692925550133805 Q -2.486970825195312 0.8577925550133805 -2.478470825195312 0.8390425550133805 Q -2.469970825195312 0.8202925550133805 -2.469970825195312 0.7992925550133805 Q -2.469970825195312 0.7777925550133805 -2.479720825195312 0.7595425550133805 Q -2.489470825195312 0.7412925550133805 -2.5057208251953123 0.7300425550133804 Q -2.521970825195312 0.7187925550133805 -2.541970825195312 0.7187925550133805 L -2.654970825195312 0.7187925550133805 L -2.654970825195312 0.8807925550133805 M -2.358463256835937 1.0427925550133805 L -2.358463256835937 0.6877925550133805 L -2.3234632568359372 0.6877925550133805 L -2.3234632568359372 1.0427925550133805 L -2.358463256835937 1.0427925550133805 M -2.230970336914062 0.6877925550133805 L -2.1039703369140623 0.9992925550133805 L -1.9774703369140623 0.6877925550133805 L -1.9409703369140623 0.6877925550133805 L -2.0879703369140623 1.0427925550133805 L -2.1199703369140623 1.0427925550133805 L -2.2674703369140623 0.6877925550133805 L -2.230970336914062 0.6877925550133805 M -1.6464622802734374 1.0117925550133806 L -1.6464622802734374 1.0427925550133805 L -1.8849622802734374 1.0427925550133805 L -1.8849622802734374 0.6877925550133805 L -1.6509622802734374 0.6877925550133805 L -1.6509622802734374 0.7187925550133805 L -1.8499622802734375 0.7187925550133805 L -1.8499622802734375 0.8467925550133806 L -1.6764622802734372 0.8467925550133806 L -1.6764622802734372 0.8762925550133805 L -1.8499622802734375 0.8762925550133805 L -1.8499622802734375 1.0117925550133806 L -1.6464622802734374 1.0117925550133806 M -1.5404578857421876 0.7522925550133805 L -1.5404578857421876 1.0427925550133805 L -1.5754578857421875 1.0427925550133805 L -1.5754578857421875 0.6877925550133805 L -1.5464578857421876 0.6877925550133805 L -1.3134578857421875 0.9837925550133805 L -1.3134578857421875 0.6882925550133805 L -1.2784578857421875 0.6882925550133805 L -1.2784578857421875 1.0427925550133805 L -1.3109578857421875 1.0427925550133805 L -1.5404578857421876 0.7522925550133805 M -0.7849691162109377 0.9512925550133805 Q -0.7849691162109377 0.9777925550133806 -0.7984691162109376 0.9985425550133805 Q -0.8119691162109377 1.0192925550133805 -0.8347191162109378 1.0310425550133806 Q -0.8574691162109377 1.0427925550133805 -0.8844691162109377 1.0427925550133805 L -1.0519691162109377 1.0427925550133805 L -1.0519691162109377 0.6877925550133805 L -0.8809691162109377 0.6877925550133805 Q -0.8559691162109377 0.6877925550133805 -0.8377191162109376 0.7010425550133805 Q -0.8194691162109377 0.7142925550133805 -0.8097191162109376 0.7350425550133806 Q -0.7999691162109377 0.7557925550133805 -0.7999691162109377 0.7782925550133806 Q -0.7999691162109377 0.8047925550133805 -0.8134691162109376 0.8272925550133805 Q -0.8269691162109376 0.8497925550133805 -0.8509691162109376 0.8607925550133806 Q -0.8204691162109377 0.8697925550133805 -0.8027191162109377 0.8942925550133806 Q -0.7849691162109377 0.9187925550133805 -0.7849691162109377 0.9512925550133805 M -0.8199691162109377 0.9452925550133805 Q -0.8199691162109377 0.9272925550133805 -0.8279691162109377 0.9120425550133805 Q -0.8359691162109377 0.8967925550133805 -0.8497191162109377 0.8872925550133806 Q -0.8634691162109377 0.8777925550133805 -0.8809691162109377 0.8777925550133805 L -1.0169691162109378 0.8777925550133805 L -1.0169691162109378 1.0122925550133806 L -0.8844691162109377 1.0122925550133806 Q -0.8664691162109377 1.0122925550133806 -0.8519691162109377 1.0027925550133805 Q -0.8374691162109377 0.9932925550133805 -0.8287191162109377 0.9780425550133806 Q -0.8199691162109377 0.9627925550133806 -0.8199691162109377 0.9452925550133805 M -1.0169691162109378 0.7182925550133805 L -1.0169691162109378 0.8492925550133805 L -0.8949691162109377 0.8492925550133805 Q -0.8774691162109377 0.8492925550133805 -0.8639691162109376 0.8400425550133805 Q -0.8504691162109377 0.8307925550133806 -0.8424691162109377 0.8157925550133805 Q -0.8344691162109377 0.8007925550133805 -0.8344691162109377 0.7837925550133805 Q -0.8344691162109377 0.7657925550133805 -0.8419691162109377 0.7510425550133806 Q -0.8494691162109377 0.7362925550133805 -0.8624691162109377 0.7272925550133805 Q -0.8754691162109377 0.7182925550133805 -0.8919691162109377 0.7182925550133805 L -1.0169691162109378 0.7182925550133805 M -0.7269759521484377 0.6877925550133805 L -0.6109759521484377 0.8787925550133805 L -0.49397595214843765 0.6877925550133805 L -0.45597595214843767 0.6877925550133805 L -0.5934759521484376 0.9107925550133805 L -0.5934759521484376 1.0427925550133805 L -0.6284759521484377 1.0427925550133805 L -0.6284759521484377 0.9097925550133805 L -0.7654759521484377 0.6877925550133805 L -0.7269759521484377 0.6877925550133805 M -0.04647424316406268 0.7187925550133805 L -0.17297424316406265 0.7187925550133805 L -0.17297424316406265 1.0427925550133805 L -0.20797424316406266 1.0427925550133805 L -0.20797424316406266 0.7187925550133805 L -0.33447424316406266 0.7187925550133805 L -0.33447424316406266 0.6877925550133805 L -0.04647424316406268 0.6877925550133805 L -0.04647424316406268 0.7187925550133805 M 0.25001843261718737 1.0117925550133806 L 0.25001843261718737 1.0427925550133805 L 0.011518432617187338 1.0427925550133805 L 0.011518432617187338 0.6877925550133805 L 0.24551843261718737 0.6877925550133805 L 0.24551843261718737 0.7187925550133805 L 0.04651843261718734 0.7187925550133805 L 0.04651843261718734 0.8467925550133806 L 0.22001843261718734 0.8467925550133806 L 0.22001843261718734 0.8762925550133805 L 0.04651843261718734 0.8762925550133805 L 0.04651843261718734 1.0117925550133806 L 0.25001843261718737 1.0117925550133806 M 0.29053430175781236 0.8627925550133806 Q 0.29053430175781236 0.8302925550133805 0.30178430175781235 0.7990425550133805 Q 0.3130343017578123 0.7677925550133805 0.33453430175781235 0.7420425550133805 Q 0.35603430175781237 0.7162925550133805 0.38753430175781234 0.7010425550133805 Q 0.4190343017578123 0.6857925550133805 0.45903430175781235 0.6857925550133805 Q 0.5065343017578123 0.6857925550133805 0.5402843017578123 0.7075425550133805 Q 0.5740343017578123 0.7292925550133805 0.5900343017578124 0.7632925550133804 L 0.5625343017578124 0.7802925550133806 Q 0.5510343017578123 0.7567925550133805 0.5335343017578124 0.7430425550133806 Q 0.5160343017578124 0.7292925550133805 0.49628430175781235 0.7232925550133805 Q 0.47653430175781236 0.7172925550133805 0.45703430175781234 0.7172925550133805 Q 0.4250343017578123 0.7172925550133805 0.40053430175781235 0.7300425550133804 Q 0.37603430175781233 0.7427925550133805 0.35928430175781234 0.7640425550133805 Q 0.34253430175781235 0.7852925550133805 0.33403430175781235 0.8115425550133806 Q 0.32553430175781234 0.8377925550133805 0.32553430175781234 0.8647925550133806 Q 0.32553430175781234 0.8942925550133806 0.33553430175781235 0.9212925550133806 Q 0.34553430175781236 0.9482925550133805 0.3635343017578123 0.9690425550133805 Q 0.38153430175781233 0.9897925550133805 0.4057843017578123 1.0020425550133805 Q 0.4300343017578123 1.0142925550133806 0.45853430175781235 1.0142925550133806 Q 0.4785343017578123 1.0142925550133806 0.4995343017578123 1.0072925550133804 Q 0.5205343017578123 1.0002925550133805 0.5387843017578123 0.9857925550133805 Q 0.5570343017578123 0.9712925550133805 0.5680343017578123 0.9482925550133805 L 0.5970343017578124 0.9632925550133805 Q 0.5860343017578123 0.9897925550133805 0.5630343017578123 1.0082925550133806 Q 0.5400343017578124 1.0267925550133805 0.5117843017578123 1.0362925550133806 Q 0.4835343017578123 1.0457925550133804 0.45653430175781234 1.0457925550133804 Q 0.4200343017578123 1.0457925550133804 0.38953430175781234 1.0300425550133805 Q 0.35903430175781237 1.0142925550133806 0.3367843017578124 0.9880425550133806 Q 0.31453430175781233 0.9617925550133806 0.3025343017578124 0.9290425550133805 Q 0.29053430175781236 0.8962925550133806 0.29053430175781236 0.8627925550133806 M 0.9420213623046874 0.6877925550133805 L 0.9420213623046874 1.0427925550133805 L 0.9075213623046874 1.0427925550133805 L 0.9075213623046874 0.8767925550133805 L 0.6970213623046874 0.8767925550133805 L 0.6970213623046874 1.0427925550133805 L 0.6620213623046873 1.0427925550133805 L 0.6620213623046873 0.6877925550133805 L 0.6970213623046874 0.6877925550133805 L 0.6970213623046874 0.8457925550133805 L 0.9075213623046874 0.8457925550133805 L 0.9075213623046874 0.6877925550133805 L 0.9420213623046874 0.6877925550133805 M 1.0710093994140624 0.7522925550133805 L 1.0710093994140624 1.0427925550133805 L 1.0360093994140624 1.0427925550133805 L 1.0360093994140624 0.6877925550133805 L 1.0650093994140624 0.6877925550133805 L 1.2980093994140622 0.9837925550133805 L 1.2980093994140622 0.6882925550133805 L 1.3330093994140624 0.6882925550133805 L 1.3330093994140624 1.0427925550133805 L 1.3005093994140624 1.0427925550133805 L 1.0710093994140624 0.7522925550133805 M 1.5699957275390624 1.0452925550133805 Q 1.5324957275390623 1.0452925550133805 1.5019957275390623 1.0302925550133806 Q 1.4714957275390623 1.0152925550133804 1.4494957275390623 0.9895425550133805 Q 1.4274957275390623 0.9637925550133806 1.4154957275390623 0.9315425550133806 Q 1.4034957275390623 0.8992925550133806 1.4034957275390623 0.8652925550133805 Q 1.4034957275390623 0.8297925550133806 1.4159957275390624 0.7975425550133806 Q 1.4284957275390624 0.7652925550133804 1.4512457275390624 0.7400425550133805 Q 1.4739957275390623 0.7147925550133805 1.5044957275390622 0.7000425550133805 Q 1.5349957275390624 0.6852925550133806 1.5704957275390623 0.6852925550133806 Q 1.6079957275390624 0.6852925550133806 1.6384957275390624 0.7007925550133804 Q 1.6689957275390623 0.7162925550133805 1.6907457275390625 0.7422925550133805 Q 1.7124957275390624 0.7682925550133806 1.7244957275390624 0.8002925550133806 Q 1.7364957275390625 0.8322925550133805 1.7364957275390625 0.8657925550133805 Q 1.7364957275390625 0.9012925550133806 1.7239957275390623 0.9335425550133806 Q 1.7114957275390623 0.9657925550133806 1.6889957275390624 0.9910425550133806 Q 1.6664957275390624 1.0162925550133806 1.6359957275390624 1.0307925550133805 Q 1.6054957275390624 1.0452925550133805 1.5699957275390624 1.0452925550133805 M 1.4384957275390624 0.8652925550133805 Q 1.4384957275390624 0.8942925550133806 1.4479957275390625 0.9210425550133805 Q 1.4574957275390623 0.9477925550133806 1.4749957275390624 0.9685425550133805 Q 1.4924957275390625 0.9892925550133805 1.5167457275390623 1.0015425550133805 Q 1.5409957275390624 1.0137925550133806 1.5699957275390624 1.0137925550133806 Q 1.6004957275390623 1.0137925550133806 1.6247457275390624 1.0010425550133806 Q 1.6489957275390623 0.9882925550133805 1.6662457275390623 0.9670425550133805 Q 1.6834957275390623 0.9457925550133806 1.6924957275390624 0.9192925550133806 Q 1.7014957275390623 0.8927925550133805 1.7014957275390623 0.8652925550133805 Q 1.7014957275390623 0.8362925550133805 1.6919957275390622 0.8097925550133805 Q 1.6824957275390624 0.7832925550133805 1.6647457275390622 0.7622925550133806 Q 1.6469957275390623 0.7412925550133805 1.6229957275390623 0.7292925550133805 Q 1.5989957275390623 0.7172925550133805 1.5699957275390624 0.7172925550133805 Q 1.5399957275390623 0.7172925550133805 1.5157457275390624 0.7297925550133806 Q 1.4914957275390623 0.7422925550133805 1.4742457275390624 0.7635425550133805 Q 1.4569957275390624 0.7847925550133805 1.4477457275390624 0.8112925550133805 Q 1.4384957275390624 0.8377925550133805 1.4384957275390624 0.8652925550133805 M 1.8074840087890622 1.0427925550133805 L 1.8074840087890622 0.6877925550133805 L 1.8424840087890622 0.6877925550133805 L 1.8424840087890622 1.0117925550133806 L 2.0474840087890622 1.0117925550133806 L 2.0474840087890622 1.0427925550133805 L 1.8074840087890622 1.0427925550133805 M 2.232492065429687 1.0452925550133805 Q 2.194992065429687 1.0452925550133805 2.164492065429687 1.0302925550133806 Q 2.133992065429687 1.0152925550133804 2.1119920654296873 0.9895425550133805 Q 2.089992065429687 0.9637925550133806 2.077992065429687 0.9315425550133806 Q 2.065992065429687 0.8992925550133806 2.065992065429687 0.8652925550133805 Q 2.065992065429687 0.8297925550133806 2.0784920654296872 0.7975425550133806 Q 2.090992065429687 0.7652925550133804 2.1137420654296872 0.7400425550133805 Q 2.136492065429687 0.7147925550133805 2.166992065429687 0.7000425550133805 Q 2.197492065429687 0.6852925550133806 2.2329920654296873 0.6852925550133806 Q 2.270492065429687 0.6852925550133806 2.3009920654296874 0.7007925550133804 Q 2.3314920654296873 0.7162925550133805 2.3532420654296873 0.7422925550133805 Q 2.374992065429687 0.7682925550133806 2.3869920654296872 0.8002925550133806 Q 2.3989920654296872 0.8322925550133805 2.3989920654296872 0.8657925550133805 Q 2.3989920654296872 0.9012925550133806 2.386492065429687 0.9335425550133806 Q 2.3739920654296873 0.9657925550133806 2.351492065429687 0.9910425550133806 Q 2.328992065429687 1.0162925550133806 2.298492065429687 1.0307925550133805 Q 2.267992065429687 1.0452925550133805 2.232492065429687 1.0452925550133805 M 2.100992065429687 0.8652925550133805 Q 2.100992065429687 0.8942925550133806 2.1104920654296873 0.9210425550133805 Q 2.1199920654296873 0.9477925550133806 2.137492065429687 0.9685425550133805 Q 2.154992065429687 0.9892925550133805 2.1792420654296873 1.0015425550133805 Q 2.2034920654296872 1.0137925550133806 2.232492065429687 1.0137925550133806 Q 2.262992065429687 1.0137925550133806 2.287242065429687 1.0010425550133806 Q 2.3114920654296873 0.9882925550133805 2.328742065429687 0.9670425550133805 Q 2.3459920654296873 0.9457925550133806 2.354992065429687 0.9192925550133806 Q 2.363992065429687 0.8927925550133805 2.363992065429687 0.8652925550133805 Q 2.363992065429687 0.8362925550133805 2.354492065429687 0.8097925550133805 Q 2.344992065429687 0.7832925550133805 2.327242065429687 0.7622925550133806 Q 2.309492065429687 0.7412925550133805 2.285492065429687 0.7292925550133805 Q 2.261492065429687 0.7172925550133805 2.232492065429687 0.7172925550133805 Q 2.2024920654296873 0.7172925550133805 2.178242065429687 0.7297925550133806 Q 2.153992065429687 0.7422925550133805 2.1367420654296874 0.7635425550133805 Q 2.119492065429687 0.7847925550133805 2.110242065429687 0.8112925550133805 Q 2.100992065429687 0.8377925550133805 2.100992065429687 0.8652925550133805 M 2.612480346679687 1.0452925550133805 Q 2.576980346679687 1.0452925550133805 2.546480346679687 1.0300425550133805 Q 2.515980346679687 1.0147925550133805 2.493480346679687 0.9887925550133805 Q 2.470980346679687 0.9627925550133806 2.458730346679687 0.9307925550133805 Q 2.446480346679687 0.8987925550133805 2.446480346679687 0.8647925550133806 Q 2.446480346679687 0.8287925550133806 2.458730346679687 0.7965425550133806 Q 2.470980346679687 0.7642925550133806 2.492980346679687 0.7392925550133805 Q 2.514980346679687 0.7142925550133805 2.544980346679687 0.6997925550133806 Q 2.5749803466796872 0.6852925550133806 2.610480346679687 0.6852925550133806 Q 2.662980346679687 0.6852925550133806 2.6959803466796872 0.7067925550133805 Q 2.728980346679687 0.7282925550133805 2.745980346679687 0.7627925550133805 L 2.718980346679687 0.7807925550133805 Q 2.701980346679687 0.7477925550133806 2.6734803466796873 0.7322925550133805 Q 2.644980346679687 0.7167925550133805 2.609980346679687 0.7167925550133805 Q 2.580480346679687 0.7167925550133805 2.556730346679687 0.7292925550133805 Q 2.532980346679687 0.7417925550133806 2.515980346679687 0.7627925550133805 Q 2.498980346679687 0.7837925550133805 2.490230346679687 0.8102925550133805 Q 2.481480346679687 0.8367925550133806 2.481480346679687 0.8652925550133805 Q 2.481480346679687 0.8952925550133806 2.491480346679687 0.9220425550133805 Q 2.501480346679687 0.9487925550133806 2.519980346679687 0.9695425550133805 Q 2.538480346679687 0.9902925550133805 2.562730346679687 1.0020425550133805 Q 2.5869803466796872 1.0137925550133806 2.614980346679687 1.0137925550133806 Q 2.647480346679687 1.0137925550133806 2.676480346679687 0.9975425550133805 Q 2.7054803466796873 0.9812925550133805 2.731980346679687 0.9472925550133805 L 2.731980346679687 0.9842925550133805 Q 2.6814803466796873 1.0452925550133805 2.612480346679687 1.0452925550133805 M 2.726480346679687 0.8952925550133806 L 2.647480346679687 0.8952925550133806 L 2.647480346679687 0.8682925550133805 L 2.755980346679687 0.8682925550133805 L 2.755980346679687 1.0427925550133805 L 2.726480346679687 1.0427925550133805 L 2.726480346679687 0.8952925550133806 M 2.817983764648437 0.6877925550133805 L 2.933983764648437 0.8787925550133805 L 3.050983764648437 0.6877925550133805 L 3.088983764648437 0.6877925550133805 L 2.951483764648437 0.9107925550133805 L 2.951483764648437 1.0427925550133805 L 2.916483764648437 1.0427925550133805 L 2.916483764648437 0.9097925550133805 L 2.779483764648437 0.6877925550133805 L 2.817983764648437 0.6877925550133805" fill="#4e888f" fill-rule="nonzero"></path></g><g clip-path="url(#SvgjsClipPath1001)"><g clip-path="url(#SvgjsClipPath10006ff0c750-07d4-4225-ab8e-68a04179d7e0)"><path d=" M -1.7189962550221967 -3.1399363078852573 C -1.8012231815549868 -3.283141779708336 -1.7524969592554875 -3.4658651133314566 -1.6098825017280116 -3.549112882738465 C -1.4666423623763805 -3.6310745083821097 -1.2841158606808323 -3.58240077459663 -1.2007059268748017 -3.4399991294442764 L -0.3900816680267236 -2.039705962168854 C -0.3346153765806741 -1.945744445218445 -0.3346153765806741 -1.8290582511729867 -0.3900816680267236 -1.7350967342225772 L -1.1988873643198978 -0.33889533269568695 C -1.2821240611261522 -0.19527122840254174 -1.4660310771155 -0.14631756227588077 -1.609655181408645 -0.22955425908213556 C -1.7532792857017911 -0.3127909558883908 -1.8022329518284512 -0.4966979718777371 -1.7189962550221967 -0.6403220761708828 L -0.9947537175320198 -1.889219910750619 Z" fill="#bab9b4" transform="matrix(1,0,0,1,0,0)" fill-rule="evenodd"></path></g><g clip-path="url(#SvgjsClipPath10006ff0c750-07d4-4225-ab8e-68a04179d7e0)"><path d=" M -0.6646846138170988 -3.1399363078852573 C -0.7468344977648469 -3.2832603488143604 -0.6978955544660397 -3.466019888104512 -0.555116219884183 -3.549112882738465 C -0.41191074806110684 -3.631339809271252 -0.22918741443798685 -3.5826135869717533 -0.1459396450309769 -3.4399991294442764 L 0.6633206919009242 -2.038342040252677 C 0.7185922487604115 -1.9443274278430809 0.7185922487604115 -1.8277474247159955 0.6633206919009242 -1.7337328123063995 L -0.14457572311479727 -0.33889533269568695 C -0.22781241992105294 -0.19527122840254174 -0.4117194359103995 -0.14631756227588077 -0.5553435402035458 -0.22955425908213556 C -0.6989676444966906 -0.3127909558883908 -0.7479213106233507 -0.4966979718777371 -0.6646846138170976 -0.6403220761708828 L 0.0572847204794511 -1.889219910750619 Z" fill="#4e888f" transform="matrix(1,0,0,1,0,0)" fill-rule="evenodd"></path></g><g clip-path="url(#SvgjsClipPath10006ff0c750-07d4-4225-ab8e-68a04179d7e0)"><path d=" M 0.38962702738800026 -3.1399363078852573 C 0.3074771434402499 -3.2832603488143604 0.3564160867390571 -3.466019888104512 0.4991954213209149 -3.549112882738465 C 0.6424008931439924 -3.631339809271252 0.8251242267671124 -3.5826135869717533 0.9083719961741226 -3.4399991294442764 L 1.717632333106021 -2.038342040252677 C 1.7729038899655083 -1.9443274278430809 1.7729038899655083 -1.8277474247159955 1.717632333106021 -1.7337328123063995 L 0.9097359180902993 -0.33889533269568695 C 0.8264992212840463 -0.19527122840254174 0.6425922052946995 -0.14631756227588077 0.4989681010015521 -0.22955425908213556 C 0.35534399670840733 -0.3127909558883908 0.3063903305817446 -0.4966979718777371 0.38962702738800026 -0.6403220761708828 L 1.112051002323276 -1.889219910750619 Z" fill="#404040" transform="matrix(1,0,0,1,0,0)" fill-rule="evenodd"></path></g></g></g><defs><clipPath id="SvgjsClipPath1001"><path d=" M -1.7594592718687938 -3.5913944621399634 h 3.5189185437375876 v 3.4038944621399634 h -3.5189185437375876 Z"></path></clipPath><clipPath id="SvgjsClipPath10006ff0c750-07d4-4225-ab8e-68a04179d7e0"><path d=" M -1.7594592718687938 -3.5913944621399634 L 1.7594592718687938 -3.5913944621399634 L 1.7594592718687938 -0.1875 L -1.7594592718687938 -0.1875 Z"></path></clipPath></defs></svg>